<?xml version="1.0" standalone="no"?>
<!DOCTYPE svg PUBLIC "-//W3C//DTD SVG 20010904//EN"
 "http://www.w3.org/TR/2001/REC-SVG-20010904/DTD/svg10.dtd">
<svg version="1.0" xmlns="http://www.w3.org/2000/svg"
 width="1024.000000pt" height="1024.000000pt" viewBox="0 0 1024.000000 1024.000000"
 preserveAspectRatio="xMidYMid meet">

<g transform="translate(0.000000,1024.000000) scale(0.100000,-0.100000)"
fill="#000000" stroke="none">
<path d="M5128 9110 c-130 -10 -209 -25 -350 -66 -281 -82 -472 -181 -695
-361 -185 -149 -414 -469 -482 -671 -12 -35 -33 -80 -46 -100 -34 -51 -56
-147 -59 -255 l-3 -91 -61 -17 c-104 -29 -154 -80 -167 -169 -8 -57 16 -177
51 -247 33 -69 73 -97 148 -103 l60 -5 26 -101 c42 -159 93 -277 173 -396 l45
-67 -112 -35 c-153 -47 -900 -232 -1181 -291 -44 -9 -109 -25 -145 -35 -36
-10 -77 -21 -92 -24 l-28 -6 0 -118 c0 -64 4 -196 10 -292 5 -96 14 -348 21
-560 6 -212 14 -388 18 -392 4 -4 55 8 113 26 58 19 144 42 190 51 45 9 124
27 173 41 50 13 151 37 225 53 74 15 187 40 250 55 63 14 205 44 315 66 110
23 271 59 358 81 179 44 213 48 202 22 -41 -101 -46 -130 -42 -213 3 -63 12
-105 35 -163 41 -106 86 -157 174 -201 110 -56 154 -51 589 65 102 27 264 67
360 90 96 22 242 58 324 79 83 22 220 53 305 70 85 17 229 51 320 75 91 25
263 67 384 95 120 27 241 60 270 73 112 52 202 169 225 293 10 49 2 168 -15
254 -9 43 -47 122 -68 139 -25 21 -20 26 47 40 145 29 780 184 922 225 49 14
140 33 202 41 227 29 346 77 432 171 105 114 151 254 132 398 -15 109 -37 166
-88 228 -24 29 -43 58 -43 65 0 12 58 33 91 33 24 0 29 21 29 118 0 95 -19
203 -45 252 -25 48 -84 109 -129 132 -95 49 -262 29 -436 -52 -68 -31 -101
-40 -165 -45 -116 -9 -241 -31 -395 -70 -124 -31 -179 -42 -434 -90 -48 -9
-95 -19 -103 -22 -14 -5 -15 5 -8 83 10 116 7 322 -6 403 -11 72 -9 75 52 85
86 14 135 97 133 226 -4 198 -107 309 -261 278 -26 -5 -54 -10 -61 -11 -7 -1
-23 29 -38 73 -37 109 -86 168 -154 189 -24 7 -46 25 -66 53 -62 88 -280 258
-438 342 -149 80 -271 124 -440 161 -128 29 -376 59 -435 54 -9 -1 -60 -5
-113 -9z m482 -223 c80 -20 170 -45 200 -55 83 -30 194 -82 187 -88 -3 -3 -56
-17 -117 -30 -61 -13 -119 -28 -129 -34 -32 -16 -51 -57 -51 -107 0 -45 51
-334 85 -480 9 -36 14 -67 13 -68 -2 -1 -113 -26 -248 -54 -135 -29 -281 -60
-325 -71 -44 -10 -118 -26 -165 -35 -103 -20 -269 -57 -409 -91 -57 -13 -104
-23 -106 -22 -1 2 -25 134 -53 293 -51 288 -51 290 -83 319 -31 28 -35 28
-103 22 -39 -3 -116 -17 -171 -31 -86 -21 -104 -29 -127 -57 -22 -28 -26 -40
-21 -74 4 -31 2 -42 -10 -47 -26 -10 -107 -19 -107 -12 0 17 65 95 76 91 6 -2
11 2 10 9 0 7 51 67 115 132 90 93 147 140 252 211 200 136 365 213 559 262
210 53 258 59 433 55 131 -3 169 -8 295 -38z m600 -271 c0 -2 -9 -6 -20 -9
-11 -3 -20 -1 -20 4 0 5 9 9 20 9 11 0 20 -2 20 -4z m-190 -28 c5 -13 18 -75
29 -138 53 -315 225 -1221 247 -1296 5 -19 -1 -22 -86 -35 -63 -10 -94 -12
-100 -4 -8 10 -31 123 -95 480 -41 225 -86 456 -121 615 -38 174 -65 323 -62
345 2 14 18 23 68 36 91 24 109 23 120 -3z m299 -122 c8 -20 39 -175 116 -586
7 -41 34 -172 59 -290 25 -118 46 -221 46 -227 0 -19 -55 -43 -109 -50 -44 -5
-50 -3 -56 17 -4 12 -29 133 -55 268 -27 136 -76 381 -110 546 -34 164 -59
300 -56 303 4 4 130 40 149 42 4 1 12 -10 16 -23z m306 -120 c8 -18 30 -118
49 -222 20 -104 52 -265 72 -359 51 -237 54 -216 -39 -239 -42 -10 -79 -17
-82 -15 -2 3 -20 83 -39 179 -19 96 -43 211 -54 255 -29 117 -76 394 -69 401
7 8 103 32 130 33 11 1 23 -11 32 -33z m-2296 -133 c6 -21 33 -164 61 -318
107 -591 202 -1074 221 -1123 5 -14 6 -28 2 -32 -4 -4 -45 -14 -91 -22 -62
-11 -85 -12 -92 -3 -21 25 -39 98 -65 256 -14 90 -37 218 -50 284 -14 66 -36
183 -50 260 -14 77 -42 214 -62 305 -41 190 -73 389 -62 395 16 11 116 34 146
34 29 1 33 -3 42 -36z m2644 -120 c13 -23 19 -55 20 -110 2 -73 1 -78 -23 -89
-14 -7 -46 -15 -72 -19 -44 -7 -48 -5 -48 13 0 22 24 32 82 32 38 0 54 12 43
30 -5 8 -11 8 -19 1 -14 -12 -126 -27 -126 -17 0 4 -7 41 -16 82 -8 42 -12 79
-9 83 11 11 89 30 120 28 21 -2 34 -10 48 -34z m-2909 -135 c37 -185 56 -289
76 -408 12 -69 25 -137 30 -152 5 -15 23 -108 40 -205 28 -160 60 -325 71
-362 3 -10 -16 -19 -66 -32 -38 -10 -75 -18 -82 -18 -16 -1 -39 80 -57 199
-22 147 -71 401 -126 665 -28 132 -51 267 -53 300 l-2 60 50 17 c28 9 62 17
76 17 25 1 27 -3 43 -81z m1771 -90 c35 -214 34 -199 11 -208 -33 -12 -247
-52 -252 -47 -3 3 19 10 48 17 29 7 67 19 83 26 17 8 51 18 75 22 36 6 45 12
45 27 0 13 -6 19 -15 17 -8 -2 -51 -12 -95 -23 -236 -56 -387 -89 -445 -99
-36 -5 -110 -21 -165 -34 -55 -13 -154 -34 -220 -46 -66 -11 -142 -27 -170
-35 -27 -7 -69 -17 -92 -20 -40 -6 -42 -5 -48 22 -3 15 -12 52 -20 81 -12 47
-12 53 3 61 15 8 407 95 742 166 69 14 204 43 300 64 96 21 183 39 192 40 12
1 19 -9 23 -31z m-2025 -37 c0 -6 15 -94 34 -198 19 -103 37 -208 41 -233 4
-25 16 -83 27 -130 10 -47 26 -136 34 -199 8 -63 17 -118 20 -122 7 -12 -14
-21 -80 -35 -34 -7 -65 -9 -70 -4 -5 5 -23 98 -42 207 -18 109 -42 239 -53
288 -11 50 -27 119 -36 155 -23 103 -39 215 -32 233 10 28 157 63 157 38z
m1570 -273 c-236 -53 -317 -71 -455 -97 -83 -16 -175 -36 -205 -45 -51 -15
-100 -21 -100 -12 0 2 -3 13 -7 23 -5 15 -4 16 8 6 11 -8 33 -8 93 3 44 7 82
18 85 22 3 5 20 9 38 10 17 0 41 5 52 11 11 6 39 11 63 11 41 0 109 12 363 65
134 28 184 30 65 3z m515 -70 c8 -53 61 -329 81 -422 7 -38 14 -74 14 -82 0
-8 -29 -19 -77 -29 -43 -9 -128 -30 -190 -46 -61 -16 -168 -41 -238 -54 -70
-14 -155 -32 -189 -41 -57 -15 -214 -49 -435 -95 -52 -11 -98 -16 -101 -12 -4
5 -19 71 -34 148 -14 77 -38 200 -53 273 -14 73 -24 134 -21 137 2 3 49 14
104 25 54 11 144 31 199 44 55 13 190 43 300 66 110 23 288 61 395 85 107 24
205 43 217 44 18 1 22 -6 28 -41z m-2296 -61 c5 -12 12 -57 16 -99 l7 -76 -64
-11 c-36 -6 -72 -11 -81 -11 -10 0 -17 -8 -17 -19 0 -26 13 -33 43 -22 33 13
127 17 128 5 0 -10 -149 -46 -167 -40 -13 5 -54 162 -54 208 0 48 9 56 81 72
90 20 98 19 108 -7z m4803 -87 c78 -22 139 -103 142 -188 l1 -46 -80 -28
c-123 -44 -115 -43 -115 -19 0 35 -31 100 -51 106 -26 9 -82 -11 -105 -36 -14
-16 -19 -37 -19 -84 0 -59 3 -66 34 -99 19 -19 70 -53 115 -75 99 -50 174
-105 200 -150 14 -25 20 -58 24 -131 4 -87 2 -104 -18 -145 -56 -116 -163
-192 -307 -216 -67 -12 -72 -11 -119 12 -40 20 -54 34 -76 79 -17 34 -30 80
-34 121 l-6 66 53 13 c30 7 64 18 76 26 12 8 24 14 26 14 3 0 7 -22 11 -49 7
-54 42 -101 76 -101 34 0 87 27 105 53 8 13 18 47 22 75 7 65 -6 86 -83 132
-76 44 -214 143 -242 173 -12 13 -26 47 -32 76 -22 118 -5 223 49 297 70 98
237 156 353 124z m-1657 -157 c-4 -16 -8 -30 -10 -32 -2 -1 -41 -9 -87 -17
-46 -8 -113 -23 -150 -33 l-66 -18 -5 36 c-2 20 -2 39 0 43 6 12 32 -3 38 -21
7 -23 38 -23 88 -1 23 11 52 20 65 20 12 0 22 5 22 10 0 6 11 10 24 10 14 0
28 5 31 11 4 6 13 8 21 5 8 -3 14 -1 14 4 0 6 5 10 11 10 7 0 9 -10 4 -27z
m1032 -4 c63 -20 112 -97 129 -201 6 -34 4 -38 -14 -38 -17 0 -123 -29 -167
-46 -8 -3 -17 12 -24 43 -16 61 -26 73 -66 73 -96 0 -137 -146 -62 -221 16
-17 78 -54 137 -84 172 -86 194 -112 206 -246 8 -92 -4 -137 -56 -218 -62 -96
-159 -147 -300 -158 -60 -4 -69 -2 -112 26 -63 40 -76 64 -92 160 l-13 81 26
6 c54 12 127 32 144 39 15 6 17 4 12 -17 -9 -34 18 -95 48 -109 33 -15 100 5
126 37 23 29 35 92 26 134 -8 35 -35 57 -170 134 -176 102 -199 135 -199 286
0 90 3 111 23 148 77 149 244 220 398 171z m-523 -121 c3 -29 7 -71 8 -93 l3
-40 -130 -32 c-71 -18 -140 -32 -152 -33 -22 0 -23 -4 -23 -82 0 -46 3 -106 6
-134 l6 -51 112 28 c61 15 114 25 117 21 4 -4 9 -46 11 -95 l4 -87 -35 -10
c-20 -5 -74 -18 -121 -28 l-85 -18 1 -127 c0 -70 2 -129 5 -132 3 -2 21 0 40
5 55 16 261 62 262 58 1 -2 1 -44 -1 -94 l-3 -91 -127 -27 c-70 -14 -176 -39
-237 -55 -60 -16 -111 -28 -113 -26 -2 2 -7 124 -12 271 -14 419 -30 767 -35
790 -4 19 4 23 103 43 223 47 337 73 352 82 30 17 39 9 44 -43z m-630 -165 c5
-71 16 -342 31 -828 l6 -180 -83 -20 c-46 -11 -88 -21 -94 -23 -13 -3 -84 139
-181 363 -36 83 -67 152 -69 154 -5 5 5 -429 11 -499 l6 -65 -92 -22 c-51 -12
-95 -20 -98 -17 -3 3 -6 114 -7 247 -1 247 -19 725 -29 794 l-6 38 78 24 c43
12 80 23 83 24 8 1 57 -93 168 -323 l104 -215 -6 200 c-4 110 -9 241 -12 292
l-6 92 29 6 c15 4 55 15 88 24 33 10 63 16 66 14 4 -1 10 -38 13 -80z m-710
-105 c3 -7 7 -48 9 -90 l5 -77 -31 -10 c-18 -5 -60 -15 -95 -22 l-63 -12 7
-65 c4 -36 12 -234 18 -441 10 -333 9 -377 -4 -382 -47 -21 -166 -47 -174 -39
-5 5 -13 197 -17 427 -4 230 -11 428 -15 441 -5 18 -11 21 -28 16 -54 -17
-123 -34 -143 -34 -24 0 -30 19 -35 115 l-3 59 175 37 c96 20 218 48 270 62
113 30 119 31 124 15z m-680 -240 c19 -290 35 -672 36 -820 0 -150 -2 -167
-17 -172 -49 -14 -156 -36 -160 -32 -5 4 -9 89 -33 636 -6 135 -13 291 -17
347 l-6 101 47 7 c26 4 66 13 89 21 23 7 45 13 48 13 3 1 9 -45 13 -101z
m-306 -113 l-3 -40 -125 -32 c-69 -18 -138 -32 -154 -33 l-29 0 7 -137 c4 -76
9 -140 12 -142 4 -4 150 27 210 44 20 6 21 2 27 -86 4 -51 5 -94 3 -96 -2 -3
-57 -17 -123 -31 l-118 -27 3 -220 4 -220 -88 -22 c-66 -16 -91 -19 -97 -10
-4 7 -6 104 -5 217 l3 206 33 44 c39 54 40 76 4 120 -16 19 -35 46 -42 59 -10
19 -37 308 -39 416 -1 18 15 23 147 49 81 16 194 41 252 55 l105 26 8 -50 c4
-27 6 -68 5 -90z m-708 -114 l0 -89 -29 -10 c-16 -6 -63 -16 -103 -23 l-74
-12 3 -141 c2 -78 7 -231 13 -341 6 -110 11 -253 13 -317 l2 -117 -98 -23 -98
-24 -4 20 c-2 12 -6 214 -10 450 -3 237 -8 432 -10 435 -3 2 -51 -5 -107 -17
-55 -12 -103 -20 -106 -17 -3 3 -8 43 -10 90 -4 82 -4 84 19 89 13 3 65 15
114 26 50 11 173 40 275 64 102 24 191 44 198 45 9 1 12 -23 12 -88z m-853
-196 c30 -86 139 -505 197 -752 10 -40 28 -100 42 -133 13 -33 24 -63 24 -67
0 -5 -41 -16 -90 -26 -50 -10 -96 -20 -104 -23 -10 -4 -18 18 -30 88 -22 120
-22 120 -71 106 -22 -6 -74 -18 -115 -27 l-75 -16 -14 -107 -13 -106 -82 -21
c-44 -11 -91 -23 -102 -27 -21 -6 -21 -5 -8 78 33 208 58 350 76 438 10 52 32
172 48 265 16 94 37 210 47 259 l18 89 95 24 c52 13 96 26 99 29 16 16 37 -10
58 -71z m-493 -215 c-7 -6 -191 -57 -268 -73 l-59 -12 7 -130 c4 -71 8 -130 9
-132 2 -1 53 11 115 26 l112 29 0 -89 c0 -49 0 -92 0 -96 1 -4 -34 -15 -77
-25 -165 -39 -153 -32 -148 -86 3 -26 7 -124 9 -218 l6 -171 -81 -17 c-45 -10
-87 -20 -94 -22 -8 -3 -15 7 -19 27 -3 17 -10 237 -16 488 -5 251 -12 479 -15
506 l-6 50 133 29 c73 16 189 42 258 60 l125 31 7 -85 c4 -46 4 -87 2 -90z
m1576 58 c25 -54 25 -100 2 -121 -27 -24 -128 -68 -171 -74 -73 -10 -136 82
-97 142 27 41 143 93 209 94 35 1 39 -2 57 -41z m2356 -270 c68 -46 97 -117
98 -243 1 -102 -12 -136 -83 -217 -48 -54 -80 -67 -236 -98 -60 -12 -253 -57
-427 -101 -174 -43 -327 -79 -339 -79 -26 0 -156 -30 -304 -70 -60 -16 -162
-41 -225 -56 -231 -52 -366 -83 -400 -93 -19 -6 -44 -11 -55 -11 -16 0 -14 3
10 16 17 8 41 17 55 19 131 19 216 39 226 54 7 9 23 16 36 17 128 4 121 3 102
21 -13 14 -14 18 -3 22 8 2 17 9 21 15 4 5 22 9 42 8 27 -2 36 2 41 18 7 22
44 27 63 8 9 -9 12 -9 12 0 0 7 -5 12 -11 12 -6 0 -9 7 -6 14 4 11 1 13 -11 9
-15 -6 -15 -5 -3 10 17 22 18 22 35 -10 8 -16 15 -22 16 -15 0 6 5 12 11 12 6
0 9 -6 6 -13 -6 -17 19 -52 28 -38 3 6 21 11 40 11 52 0 138 22 123 32 -9 6
-7 8 7 6 47 -3 65 2 65 21 0 11 -4 21 -9 23 -4 2 -12 14 -16 27 -6 20 -4 23 9
18 9 -4 16 -2 16 3 0 6 7 10 15 10 9 0 26 6 38 14 12 8 49 20 82 27 33 7 64
16 69 20 10 9 -12 177 -23 184 -8 4 -102 -18 -119 -28 -28 -18 1 -24 49 -10
28 8 52 13 54 11 2 -2 5 -16 7 -33 4 -34 -26 -55 -80 -55 -23 0 -32 -4 -29
-12 5 -16 74 -13 93 3 22 18 46 3 42 -28 -3 -24 -10 -28 -78 -45 -41 -10 -86
-19 -100 -20 -14 -1 -31 -6 -39 -12 -11 -8 -13 -8 -8 0 3 6 0 20 -8 30 -8 10
-15 28 -15 40 0 12 -5 35 -11 53 -10 28 -15 31 -39 26 -31 -7 -56 15 -46 40 3
9 2 13 -3 10 -5 -3 -12 -1 -16 5 -3 5 -11 10 -17 10 -7 0 -7 -4 0 -13 14 -17
34 -209 22 -221 -16 -16 -76 4 -117 39 -23 19 -44 35 -47 35 -7 0 4 -59 15
-81 11 -22 -2 -38 -38 -45 -35 -7 -31 -18 -50 151 -6 59 -8 64 -11 29 -2 -32
-8 -43 -23 -47 -14 -4 -23 3 -35 28 -8 18 -24 41 -35 51 -19 17 -19 16 -19
-39 0 -56 0 -57 -30 -58 -63 -3 -59 6 -40 -104 14 -86 15 -85 -29 -85 l-38 0
-7 81 -8 81 -36 -7 c-20 -4 -41 -7 -47 -8 -5 -1 -11 14 -13 34 l-3 36 -42 -9
c-23 -5 -58 -12 -77 -15 -19 -3 -44 -13 -55 -22 -11 -9 -33 -18 -50 -20 -16
-2 -33 -8 -37 -15 -6 -8 -8 -8 -8 0 0 7 -6 14 -13 17 -9 3 -11 -6 -9 -33 l4
-38 -57 -16 c-51 -15 -77 -37 -62 -53 4 -3 25 2 48 11 48 20 62 12 57 -30 -3
-26 -7 -29 -42 -32 l-39 -3 7 -45 c5 -39 3 -44 -13 -44 -11 0 -26 -2 -34 -6
-11 -4 -17 9 -26 53 -7 32 -18 85 -26 118 -12 54 -13 56 -14 23 -1 -31 -5 -38
-21 -38 -11 0 -20 -6 -21 -12 0 -10 -2 -10 -6 0 -5 14 -23 16 -23 3 0 -5 -22
-31 -49 -58 -34 -34 -52 -61 -56 -86 -5 -25 -4 -37 4 -37 6 0 11 -7 11 -16 0
-14 2 -15 17 -3 15 12 16 12 10 -3 -4 -12 -2 -18 7 -18 8 0 22 -12 31 -27 17
-26 19 -26 26 -8 7 18 8 18 8 2 1 -30 27 -50 50 -37 11 5 32 10 48 10 22 0 25
2 13 10 -13 8 -12 10 3 10 9 0 17 -6 17 -12 0 -8 3 -9 8 -3 4 6 23 12 42 14
57 5 32 -5 -93 -38 -114 -30 -119 -30 -165 -15 -99 33 -149 112 -159 248 -5
75 -3 89 19 138 27 58 80 118 126 142 37 19 313 99 432 124 52 12 259 61 460
110 664 163 874 212 1420 330 83 18 114 14 166 -20z m-1948 -600 c10 -13 32
-146 32 -198 0 -23 -5 -28 -30 -32 -17 -3 -33 -2 -35 2 -2 3 -9 55 -16 114
-11 92 -11 109 2 117 20 12 35 11 47 -3z m-514 -283 c-4 -8 -8 -15 -10 -15 -2
0 -4 7 -4 15 0 8 4 15 10 15 5 0 7 -7 4 -15z m381 -120 c-22 -8 -51 -13 -65
-13 -15 0 -4 6 25 13 65 17 91 17 40 0z"/>
<path d="M5014 8626 l-28 -23 17 -79 c27 -124 31 -117 -75 -136 -107 -20 -123
-32 -114 -82 4 -19 11 -38 16 -41 9 -5 87 7 197 30 19 4 23 -2 38 -73 22 -98
41 -136 63 -127 9 3 29 9 45 12 33 7 33 14 1 120 -32 102 -30 107 71 123 124
19 145 28 145 56 0 21 -25 85 -33 84 -1 0 -51 -13 -110 -29 -59 -15 -109 -25
-111 -22 -3 3 -11 41 -20 83 -28 137 -45 154 -102 104z"/>
<path d="M6006 7793 c10 -40 14 -41 14 -5 0 18 -5 32 -10 32 -6 0 -8 -11 -4
-27z"/>
<path d="M6181 7537 c-1 -22 49 -270 56 -277 3 -3 2 16 -2 42 -11 72 -53 255
-54 235z"/>
<path d="M6084 7391 c3 -18 6 -42 6 -52 0 -11 5 -19 11 -19 13 0 2 80 -13 95
-7 7 -9 -1 -4 -24z"/>
<path d="M6100 7293 c0 -13 5 -23 10 -23 13 0 13 11 0 30 -8 12 -10 11 -10 -7z"/>
<path d="M6242 7220 c0 -14 2 -19 5 -12 2 6 2 18 0 25 -3 6 -5 1 -5 -13z"/>
<path d="M6462 7580 c0 -14 2 -19 5 -12 2 6 2 18 0 25 -3 6 -5 1 -5 -13z"/>
<path d="M6352 7550 c0 -14 2 -19 5 -12 2 6 2 18 0 25 -3 6 -5 1 -5 -13z"/>
<path d="M6474 7518 c4 -18 10 -54 13 -79 4 -41 2 -49 -18 -63 -22 -15 -22
-16 -4 -16 47 1 50 12 30 104 -9 47 -20 86 -23 86 -2 0 -1 -15 2 -32z"/>
<path d="M6560 7914 c0 -14 3 -14 15 -4 8 7 15 14 15 16 0 2 -7 4 -15 4 -8 0
-15 -7 -15 -16z"/>
<path d="M6725 7672 c4 -27 2 -41 -4 -37 -6 3 -18 -6 -27 -20 -9 -14 -25 -25
-36 -25 -13 0 -18 -6 -16 -17 4 -19 38 -20 84 -3 28 11 31 42 8 105 l-14 40 5
-43z"/>
<path d="M4312 7455 c0 -16 2 -22 5 -12 2 9 2 23 0 30 -3 6 -5 -1 -5 -18z"/>
<path d="M4322 7370 c0 -14 2 -19 5 -12 2 6 2 18 0 25 -3 6 -5 1 -5 -13z"/>
<path d="M4385 7045 c5 -27 14 -86 20 -130 7 -48 13 -66 14 -45 1 38 -27 212
-36 220 -3 3 -2 -17 2 -45z"/>
<path d="M4531 6974 c0 -11 3 -14 6 -6 3 7 2 16 -1 19 -3 4 -6 -2 -5 -13z"/>
<path d="M4542 6920 c0 -14 2 -19 5 -12 2 6 2 18 0 25 -3 6 -5 1 -5 -13z"/>
<path d="M4422 6805 c0 -16 2 -22 5 -12 2 9 2 23 0 30 -3 6 -5 -1 -5 -18z"/>
<path d="M4101 7017 c0 -12 4 -40 8 -62 l8 -40 4 57 c3 40 0 59 -8 63 -8 3
-13 -4 -12 -18z"/>
<path d="M3766 7324 c4 -20 13 -59 20 -88 l13 -51 -4 70 c-5 75 -1 90 30 98
11 2 1 5 -23 6 l-43 1 7 -36z"/>
<path d="M3242 5790 c-6 -36 -23 -112 -36 -170 -29 -121 -33 -165 -12 -157 7
3 34 8 59 12 77 12 79 15 50 130 -14 55 -30 134 -37 175 l-12 75 -12 -65z"/>
<path d="M6616 5517 c-5 -29 -12 -38 -34 -43 -62 -14 -92 -26 -92 -39 0 -10
10 -12 38 -8 63 10 67 9 70 -19 3 -28 0 -30 -65 -43 -19 -4 -33 -13 -33 -21 0
-10 6 -11 23 -5 12 4 41 11 64 15 36 5 44 3 53 -13 14 -27 13 -30 -12 -42
l-23 -10 23 5 c12 2 22 -1 22 -7 0 -9 2 -9 8 -1 4 6 17 14 30 18 21 7 31 26
13 26 -11 0 -41 96 -41 132 -1 12 -9 38 -19 57 l-18 34 -7 -36z"/>
<path d="M6228 5390 c-13 -14 -26 -18 -51 -13 -42 6 -61 -14 -20 -22 15 -3 46
-11 68 -18 37 -11 40 -15 43 -50 2 -23 -3 -48 -13 -63 -12 -19 -13 -24 -2 -24
16 0 42 65 51 124 9 68 -37 109 -76 66z"/>
<path d="M6064 5304 c3 -9 6 -25 6 -37 0 -21 4 -22 65 -19 77 4 90 26 22 36
-23 4 -55 13 -71 21 -25 13 -27 13 -22 -1z"/>
<path d="M6553 5283 c9 -2 23 -2 30 0 6 3 -1 5 -18 5 -16 0 -22 -2 -12 -5z"/>
<path d="M6465 5265 l-30 -14 30 6 c17 3 37 9 45 14 27 15 -11 10 -45 -6z"/>
<path d="M6082 5194 c10 -10 20 -15 24 -12 3 4 -5 12 -18 18 -22 12 -22 12 -6
-6z"/>
<path d="M5487 5193 c-11 -10 -8 -20 7 -26 10 -4 12 0 9 14 -6 21 -7 22 -16
12z"/>
<path d="M5045 5175 c-39 -14 -40 -14 -5 -8 41 7 82 22 60 22 -8 0 -33 -7 -55
-14z"/>
<path d="M5732 5130 c0 -19 2 -27 5 -17 2 9 2 25 0 35 -3 9 -5 1 -5 -18z"/>
<path d="M4630 5070 c-8 -5 -10 -10 -5 -10 6 0 17 5 25 10 8 5 11 10 5 10 -5
0 -17 -5 -25 -10z"/>
<path d="M7706 8347 c-16 -11 -18 -21 -12 -55 3 -23 14 -58 24 -78 10 -22 13
-39 7 -41 -35 -12 -75 -45 -75 -63 0 -18 4 -20 43 -14 23 4 46 7 51 8 6 0 13
-23 18 -52 11 -73 23 -92 57 -92 52 0 61 40 35 145 -5 22 -1 27 30 40 19 8 58
15 85 15 67 0 97 29 71 70 -8 12 -15 13 -52 1 -24 -7 -71 -16 -105 -18 l-62
-5 -6 39 c-13 79 -28 108 -60 111 -17 2 -39 -3 -49 -11z m224 -162 c0 -8 -4
-15 -9 -15 -13 0 -22 16 -14 24 11 11 23 6 23 -9z"/>
<path d="M7500 8143 c-51 -19 -66 -71 -28 -97 28 -20 51 -20 87 -1 35 18 44
38 30 69 -14 31 -52 43 -89 29z"/>
<path d="M2554 7209 c-37 -11 -48 -38 -38 -99 4 -25 2 -57 -6 -80 -13 -38 -12
-40 26 -90 21 -28 48 -53 59 -55 59 -11 80 8 96 87 10 50 9 61 -9 100 -11 23
-25 62 -32 86 -8 31 -18 46 -36 52 -14 6 -26 10 -27 9 -1 0 -16 -5 -33 -10z"/>
<path d="M2870 7157 c-66 -23 -77 -108 -15 -119 35 -7 96 7 106 24 15 23 10
67 -11 88 -23 23 -31 24 -80 7z"/>
<path d="M2355 6990 c-3 -11 -3 -24 0 -30 9 -14 48 -12 70 4 16 12 17 16 6 30
-19 23 -68 21 -76 -4z"/>
<path d="M2096 6112 c-5 -9 9 -80 18 -89 3 -4 6 14 6 40 0 43 -12 68 -24 49z"/>
<path d="M7755 5661 c-44 -15 -94 -28 -111 -29 -73 -2 -458 -92 -477 -111 -6
-6 -6 -25 0 -48 8 -37 10 -38 57 -41 33 -2 115 13 255 47 113 28 246 58 296
66 128 23 156 47 124 108 -24 45 -37 46 -144 8z"/>
<path d="M3570 4690 c-168 -43 -317 -83 -332 -89 -22 -8 -28 -17 -28 -41 0
-41 16 -70 39 -70 10 0 77 15 147 34 71 19 223 57 339 85 115 29 213 58 217
64 20 30 -20 98 -56 96 -12 -1 -158 -36 -326 -79z"/>
<path d="M6668 4753 c-24 -6 -26 -21 -14 -83 11 -55 11 -55 46 -52 53 4 68 28
23 37 -10 2 -20 4 -22 4 -2 1 4 10 14 21 18 20 18 21 -3 27 -27 7 -29 23 -2
23 11 0 20 7 20 15 0 15 -25 18 -62 8z"/>
<path d="M6516 4685 c-17 -39 -35 -45 -54 -15 -7 11 -19 20 -27 20 -27 0 -14
-129 14 -138 10 -3 12 1 8 17 -5 21 7 29 17 12 9 -14 46 -1 46 17 0 13 3 13
19 -2 40 -37 48 0 20 92 -13 41 -25 41 -43 -3z"/>
<path d="M2180 4634 c0 -19 4 -33 8 -30 8 5 4 66 -4 66 -2 0 -4 -16 -4 -36z"/>
<path d="M6263 4638 c-32 -10 -33 -12 -27 -52 10 -60 19 -74 48 -69 42 8 50
26 35 83 -7 27 -15 50 -18 49 -3 -1 -21 -6 -38 -11z m41 -45 c5 -17 3 -29 -5
-34 -19 -12 -29 -1 -29 32 0 37 25 39 34 2z"/>
<path d="M6090 4585 c0 -20 -5 -25 -24 -25 -13 0 -26 7 -30 15 -6 16 -36 21
-36 7 0 -5 5 -34 11 -65 9 -44 16 -57 30 -57 13 0 17 7 16 26 -3 36 20 42 35
10 6 -15 16 -25 22 -23 15 5 19 77 7 110 -13 34 -31 35 -31 2z"/>
<path d="M5631 4461 c-9 -6 -4 -10 18 -13 21 -3 31 0 31 9 0 15 -28 17 -49 4z"/>
<path d="M5446 4428 c-3 -7 -6 -21 -8 -31 -3 -18 -4 -18 -30 2 -14 12 -31 21
-37 21 -22 0 -5 -120 17 -128 10 -3 12 5 6 34 l-7 38 32 -27 c18 -15 37 -27
42 -27 12 0 12 117 -1 125 -6 3 -12 0 -14 -7z"/>
<path d="M5681 4413 c-1 -13 -7 -23 -13 -23 -9 0 -8 -3 2 -10 21 -13 32 3 21
31 -10 24 -10 24 -10 2z"/>
<path d="M5195 4371 c-7 -13 15 -101 26 -101 4 0 20 5 34 12 18 8 24 16 19 27
-4 9 -6 28 -5 44 1 24 -2 27 -33 27 -19 0 -37 -4 -41 -9z m45 -61 c0 -5 -2
-10 -4 -10 -3 0 -8 5 -11 10 -3 6 -1 10 4 10 6 0 11 -4 11 -10z"/>
<path d="M5007 4320 c-37 -86 -28 -183 9 -105 18 38 34 44 59 19 44 -44 23 28
-25 86 l-29 35 -14 -35z"/>
<path d="M4810 4280 c-14 -5 -42 -12 -63 -17 -48 -10 -53 -27 -10 -31 34 -3
38 -11 45 -72 2 -14 10 -26 21 -28 15 -3 17 2 11 53 -6 50 -5 58 15 71 11 8
21 19 21 25 0 10 -5 10 -40 -1z"/>
<path d="M6040 2483 c-152 -15 -342 -67 -449 -123 -117 -62 -235 -160 -285
-238 -70 -110 -106 -182 -117 -236 -6 -28 -18 -62 -27 -76 -11 -17 -19 -55
-22 -115 l-5 -89 -37 -9 c-48 -11 -69 -37 -75 -91 -8 -67 4 -112 39 -146 27
-27 37 -31 73 -28 l42 3 12 -68 c6 -38 27 -103 46 -144 38 -81 42 -103 23
-104 -21 0 -163 -34 -353 -83 -359 -92 -360 -93 -358 -113 2 -10 12 -72 23
-138 10 -66 27 -190 35 -275 15 -148 45 -282 65 -295 9 -6 257 56 301 75 13 5
67 21 121 35 53 14 154 43 224 65 70 22 154 45 187 50 32 6 65 14 72 17 12 4
13 -7 8 -60 -10 -109 31 -198 108 -237 47 -25 81 -25 184 -1 96 22 546 155
712 210 65 22 179 56 253 76 153 41 200 64 244 118 27 33 31 48 34 111 3 59 0
82 -22 136 -14 35 -23 67 -19 70 5 4 71 21 148 39 77 18 167 43 200 56 33 13
94 30 135 39 112 22 190 54 227 93 42 43 68 129 59 192 -8 57 -51 148 -77 161
-27 15 -24 29 11 41 21 8 30 17 30 33 0 41 -30 125 -56 156 -55 64 -110 74
-235 40 -41 -11 -132 -36 -204 -55 -71 -19 -170 -46 -220 -60 -49 -14 -92 -25
-95 -25 -3 0 -5 53 -6 118 0 64 -3 133 -7 152 -6 32 -4 36 26 50 45 21 58 53
54 127 -2 44 -9 71 -24 90 -19 26 -26 28 -85 27 l-65 -2 -18 50 c-13 36 -27
56 -51 70 -18 10 -49 39 -69 64 -98 120 -318 217 -550 244 -90 10 -98 10 -165
3z m165 -113 c66 -10 215 -52 215 -60 0 -3 -27 -13 -60 -23 -98 -29 -101 -38
-51 -212 22 -79 41 -150 41 -158 0 -14 -2 -15 -270 -77 -96 -22 -217 -51 -267
-65 -51 -14 -99 -25 -106 -25 -9 0 -21 35 -36 108 -38 182 -48 211 -77 218
-14 4 -59 1 -100 -6 -41 -7 -76 -11 -78 -9 -3 2 39 41 91 86 202 174 470 260
698 223z m263 -177 c6 -21 27 -112 47 -203 20 -91 52 -230 71 -310 47 -192 53
-249 29 -266 -11 -8 -31 -14 -45 -14 -30 0 -42 25 -60 130 -17 98 -85 399
-120 533 -17 65 -30 126 -28 135 3 16 34 29 74 31 16 1 24 -8 32 -36z m176
-65 c4 -29 23 -98 42 -153 31 -89 33 -101 19 -111 -14 -10 -15 -30 -9 -142 7
-131 13 -160 32 -148 6 3 6 22 2 48 -11 59 -23 214 -17 208 12 -12 67 -254 60
-261 -4 -4 -25 -11 -45 -14 -35 -7 -38 -5 -44 21 -3 16 -12 52 -19 79 -8 28
-17 70 -21 95 -3 25 -19 87 -35 138 -16 51 -36 134 -46 183 -19 101 -16 109
43 109 30 0 32 -2 38 -52z m188 -128 c38 -139 54 -213 62 -281 l7 -56 -42 -7
c-23 -4 -44 -5 -46 -2 -2 2 -8 34 -14 70 -5 36 -25 130 -44 208 -19 79 -35
147 -35 151 0 11 41 27 64 24 16 -2 25 -23 48 -107z m-1442 -4 c0 -17 -26 -39
-40 -34 -6 2 -4 12 5 26 18 25 35 29 35 8z m201 -86 c9 -52 36 -187 61 -300
25 -113 54 -241 63 -285 9 -44 19 -89 22 -100 3 -16 -3 -23 -29 -33 -47 -17
-66 -15 -72 6 -3 9 -24 103 -45 207 -22 105 -57 267 -77 360 -48 219 -48 217
-4 232 59 21 63 17 81 -87z m1397 39 c7 -22 10 -44 7 -50 -7 -10 -66 -42 -69
-37 -1 2 -8 27 -15 57 -15 59 -9 71 39 71 21 0 27 -7 38 -41z m-1553 -116 c4
-27 17 -92 31 -146 29 -117 29 -117 7 -118 -14 0 -15 -2 -3 -6 8 -3 18 -11 22
-16 11 -18 31 -207 25 -242 -4 -21 -2 -34 5 -32 5 1 15 -6 21 -16 15 -22 -4
-37 -45 -37 -31 0 -29 -5 -54 144 -9 55 -22 123 -29 150 -16 62 -61 268 -69
318 -7 40 -1 46 51 47 31 1 32 -1 38 -46z m936 -44 c3 -15 3 -32 0 -38 -4 -6
-49 -18 -101 -26 -51 -9 -97 -18 -103 -22 -6 -4 -34 -12 -61 -19 -28 -7 -89
-24 -136 -38 -47 -13 -117 -33 -157 -44 l-72 -19 -11 30 c-22 63 -29 59 223
121 400 97 406 98 418 55z m-1057 -116 c18 -92 66 -363 66 -375 0 -4 -14 -15
-31 -24 -37 -19 -44 -12 -55 51 -3 22 -24 120 -45 217 -21 97 -39 182 -39 188
0 12 36 28 66 29 17 1 22 -10 38 -86z m1107 -124 c9 -46 20 -96 24 -110 5 -21
2 -27 -20 -37 -22 -10 -25 -15 -15 -27 10 -12 10 -15 -1 -16 -8 0 -6 -4 5 -8
13 -5 -12 -16 -90 -38 -60 -17 -125 -34 -144 -38 -19 -3 -55 -12 -80 -20 -103
-32 -261 -67 -268 -61 -4 4 -12 35 -18 69 -6 34 -21 95 -34 135 -12 41 -19 76
-17 78 12 12 615 164 632 160 5 -1 17 -40 26 -87z m1268 -6 c56 -53 46 -90
-29 -108 -20 -5 -28 0 -42 25 -19 34 -30 37 -52 14 -17 -16 -14 -53 8 -87 6
-10 43 -35 81 -56 87 -46 109 -84 103 -173 -5 -65 -27 -96 -90 -129 -59 -30
-100 -25 -137 16 -41 47 -41 79 2 105 40 25 47 25 47 1 0 -34 12 -51 34 -51
31 0 46 19 46 58 0 48 -14 69 -63 90 -99 44 -144 113 -128 197 17 87 58 125
137 125 45 0 59 -5 83 -27z m-2501 -70 c3 -49 1 -53 -22 -59 -32 -8 -49 3 -43
27 3 11 1 19 -3 19 -5 0 -12 10 -16 22 -8 27 20 50 56 46 23 -3 25 -8 28 -55z
m2186 -4 c25 -20 56 -68 56 -88 0 -5 -21 -16 -46 -25 l-45 -15 -11 30 c-8 25
-15 30 -36 27 -19 -2 -30 -11 -36 -30 -17 -47 2 -76 74 -115 36 -19 75 -44 87
-55 49 -46 54 -141 10 -206 -26 -38 -90 -72 -135 -72 -65 0 -147 118 -96 136
11 4 27 14 36 21 22 20 38 8 38 -28 0 -28 2 -29 44 -29 47 0 56 9 56 58 0 40
-11 51 -96 96 -69 36 -82 47 -103 89 -39 79 -15 161 63 208 42 26 106 25 140
-2z m-604 -20 c0 -10 -30 -20 -41 -13 -18 11 -9 24 16 22 14 -1 25 -5 25 -9z
m335 -49 c4 -21 4 -43 1 -48 -3 -5 -31 -17 -63 -26 -84 -23 -83 -23 -74 -89 4
-31 10 -59 13 -62 3 -3 24 2 48 10 66 23 70 21 70 -35 l0 -49 -56 -17 -56 -16
6 -45 c3 -25 6 -54 6 -65 0 -20 5 -20 98 4 23 6 44 9 46 7 2 -2 7 -22 10 -44
l7 -41 -48 -16 c-82 -29 -175 -50 -184 -41 -14 15 -68 400 -69 496 0 30 5 49
13 52 6 2 53 17 102 33 122 40 122 40 130 -8z m-315 -82 c0 -58 50 -434 66
-494 4 -16 -1 -23 -23 -32 -48 -19 -83 -25 -83 -14 0 6 -24 50 -53 99 -30 48
-61 106 -70 128 -19 47 -20 38 -8 -75 6 -47 12 -112 14 -145 l5 -61 -47 -11
c-25 -6 -47 -10 -47 -9 -2 2 -34 248 -50 386 -18 166 -18 187 4 194 50 14 82
17 82 7 0 -13 119 -211 127 -211 6 0 -4 158 -14 222 -5 34 -4 37 23 41 71 10
74 9 74 -25z m-375 -80 c2 -13 6 -36 7 -53 3 -28 1 -30 -45 -39 -48 -9 -49
-10 -43 -40 9 -41 48 -428 44 -430 -35 -19 -83 -35 -89 -29 -9 10 -39 309 -39
398 l0 67 -27 -7 c-62 -17 -68 -14 -71 41 l-3 50 74 12 c41 6 96 20 123 31 64
25 63 25 69 -1z m-317 -225 c12 -82 24 -188 27 -238 3 -49 8 -106 10 -126 5
-35 3 -37 -41 -54 -25 -9 -46 -16 -48 -14 -1 2 -8 60 -15 129 -7 69 -16 163
-21 210 -24 227 -24 228 -4 233 11 3 31 5 45 6 26 1 26 1 47 -146z m-551 121
c-3 -3 -12 -4 -19 -1 -8 3 -5 6 6 6 11 1 17 -2 13 -5z m382 -66 l1 -37 -66
-21 c-36 -11 -72 -20 -80 -20 -9 0 -12 -9 -9 -27 2 -16 7 -49 10 -74 l6 -46
56 19 c31 10 59 16 62 13 3 -3 5 -29 6 -58 l0 -51 -51 -19 -52 -19 6 -107 5
-107 -39 -13 c-22 -7 -45 -15 -51 -17 -9 -4 -13 8 -13 43 0 26 -3 78 -6 115
l-7 66 -31 -19 c-41 -25 -71 -24 -90 3 -36 51 -8 101 63 113 40 7 41 8 36 38
-13 79 -24 212 -17 218 4 4 54 19 112 34 58 15 112 31 120 35 19 11 28 -10 29
-62z m-374 -79 c8 -58 4 -63 -55 -73 l-37 -6 4 -82 c2 -46 10 -137 18 -203 24
-202 26 -187 -18 -204 -33 -12 -40 -12 -48 0 -18 30 -45 209 -56 372 -3 48
-10 87 -15 87 -5 0 -25 -7 -45 -15 -44 -19 -53 -10 -53 52 0 41 1 42 38 49 71
12 196 46 221 59 38 21 38 20 46 -36z m-391 -149 c35 -106 120 -345 145 -408
20 -49 20 -53 3 -59 -9 -3 -32 -12 -49 -19 l-33 -13 -11 41 c-13 50 -30 78
-47 78 -7 0 -31 -9 -52 -20 -40 -20 -40 -21 -40 -80 l0 -59 -37 -10 c-71 -20
-69 -22 -62 87 4 53 11 115 17 137 5 22 18 113 28 202 l18 162 45 20 c25 11
47 19 48 18 1 -2 13 -36 27 -77z m-232 -40 l3 -45 -84 -22 c-46 -12 -86 -24
-89 -27 -3 -3 0 -37 7 -75 l12 -69 28 14 c15 8 42 17 59 20 l32 7 0 -60 0 -59
-49 -13 c-80 -20 -81 -23 -66 -116 21 -121 21 -122 -22 -134 -20 -6 -38 -9
-40 -7 -2 2 -10 66 -19 142 -14 131 -44 398 -47 418 -1 5 34 19 78 31 44 12
103 29 130 37 28 8 53 12 57 9 3 -3 8 -26 10 -51z m2050 -80 c35 -27 58 -80
58 -132 0 -46 -13 -64 -72 -101 -26 -16 -27 -16 -33 3 -4 11 -11 17 -17 14 -8
-5 -9 -1 -5 10 6 16 3 15 -27 -3 -47 -30 -82 -28 -90 5 -4 15 -2 32 5 40 8 10
8 14 0 14 -6 0 -11 11 -11 25 0 43 70 63 90 25 6 -11 8 -25 5 -30 -3 -5 -1
-11 5 -15 16 -10 12 51 -5 65 -8 6 -31 12 -50 12 -43 0 -41 3 22 33 33 16 42
24 28 25 -14 1 -10 5 15 15 48 18 54 18 82 -5z m-168 -35 c-10 -8 -28 -15 -39
-15 -11 0 -26 -4 -34 -9 -19 -12 4 -24 30 -16 15 5 19 4 15 -4 -4 -6 -20 -11
-35 -11 -39 0 -54 -21 -45 -64 6 -32 4 -36 -12 -31 -14 4 -13 2 3 -6 22 -12
37 -58 24 -72 -16 -16 -83 -20 -92 -6 -16 25 -10 36 16 31 15 -2 25 0 25 7 0
6 -9 11 -20 11 -12 0 -25 11 -32 26 -11 24 -10 29 17 51 l30 24 -30 -11 c-18
-7 -31 -8 -33 -2 -2 6 -11 8 -21 5 -18 -5 -41 -55 -41 -91 0 -13 -6 -22 -15
-22 -8 0 -15 -7 -15 -16 0 -14 2 -14 16 -3 14 11 18 10 30 -6 20 -27 17 -40
-8 -52 -23 -11 -23 -11 5 -18 46 -12 26 -28 -69 -56 l-89 -26 -42 34 c-52 42
-67 43 -58 3 8 -36 -1 -55 -19 -38 -28 30 -56 151 -37 163 6 3 24 -2 41 -11
33 -20 55 -10 26 12 -19 14 -19 14 -1 14 19 0 19 1 -1 14 -11 8 -35 13 -54 11
-19 -2 -41 -4 -48 -4 -7 -1 -11 -5 -8 -10 6 -10 -21 -35 -49 -45 -58 -21 -117
-26 -138 -11 -15 10 -33 13 -57 9 -113 -21 99 37 325 88 28 6 97 29 154 52 73
28 106 36 109 28 6 -19 29 -14 58 13 15 14 29 23 32 20 3 -3 -3 -12 -14 -20
-22 -17 -12 -20 17 -4 11 5 17 14 14 19 -6 9 135 59 169 60 20 0 20 0 0 -15z
m36 -223 l45 -9 -30 -12 c-16 -7 -42 -11 -57 -8 -16 2 -28 0 -28 -5 0 -4 -4
-8 -10 -8 -5 0 -7 7 -3 16 5 14 3 15 -15 5 -28 -15 -35 -14 -24 5 12 21 55 42
67 33 6 -4 30 -11 55 -17z m-680 -43 c0 -12 -8 -23 -19 -26 -17 -4 -19 -11
-14 -54 4 -32 1 -54 -7 -64 -20 -24 -29 -18 -36 23 -3 20 -15 52 -26 71 -10
18 -16 36 -13 40 7 6 79 27 103 30 6 0 12 -8 12 -20z m-360 -38 c0 -9 -9 -24
-19 -33 -18 -16 -20 -16 -24 0 -3 10 -5 6 -6 -10 -1 -19 -10 -31 -33 -42 -17
-9 -32 -16 -33 -16 -7 0 -14 70 -9 84 7 17 91 46 112 39 6 -3 12 -13 12 -22z
m199 -44 c14 -79 14 -97 0 -97 -16 0 -39 66 -39 115 0 32 4 45 14 45 9 0 18
-21 25 -63z m-101 11 c-2 -15 -13 -24 -36 -30 -18 -5 -30 -13 -27 -19 4 -5 11
-7 16 -4 20 13 27 -7 15 -42 -9 -26 -20 -39 -39 -44 -16 -4 -30 -3 -33 3 -4 7
-2 8 4 4 15 -9 15 3 1 60 -13 52 -8 62 44 81 48 17 59 16 55 -9z m-181 -188
c7 0 13 -6 13 -12 0 -9 4 -8 10 2 7 11 10 11 10 2 0 -7 13 1 30 18 35 36 46
37 54 8 7 -30 -1 -37 -56 -44 -41 -6 -49 -4 -72 19 -14 14 -26 32 -25 39 0 7
5 3 11 -9 6 -13 17 -23 25 -23z"/>
<path d="M5881 2216 c-10 -11 -9 -21 2 -43 8 -15 18 -42 21 -59 7 -31 7 -32
-50 -45 -63 -15 -72 -25 -50 -54 14 -19 15 -19 64 8 l50 27 11 -45 c10 -42 40
-85 59 -85 4 0 13 4 21 9 11 7 11 17 -4 61 -9 29 -13 55 -9 60 5 5 29 12 54
17 36 7 46 13 48 32 6 36 -9 42 -67 26 -30 -8 -58 -12 -62 -10 -4 3 -10 22
-14 42 -4 21 -11 46 -16 55 -12 22 -42 23 -58 4z"/>
<path d="M6480 1800 c0 -5 14 -10 30 -10 17 0 30 5 30 10 0 6 -13 10 -30 10
-16 0 -30 -4 -30 -10z"/>
<path d="M6528 1643 c-4 -124 9 -156 44 -113 16 19 19 33 13 64 -3 22 -10 45
-16 52 -5 7 -9 16 -8 20 4 22 -2 34 -16 34 -11 0 -15 -14 -17 -57z"/>
<path d="M6555 1439 c-4 -6 -5 -13 -2 -16 7 -7 27 6 27 18 0 12 -17 12 -25 -2z"/>
<path d="M6837 1880 c4 -15 0 -20 -16 -20 -25 0 -27 -26 -7 -110 11 -48 16
-55 37 -55 22 0 24 4 22 40 -3 61 -24 165 -33 165 -5 0 -6 -9 -3 -20z"/>
<path d="M5633 1393 c-13 -2 -23 -10 -23 -16 0 -16 19 -86 32 -119 16 -43 47
-32 39 15 0 4 4 7 10 7 5 0 7 5 4 11 -4 5 -9 29 -12 52 -5 44 -10 58 -21 56
-4 -1 -17 -4 -29 -6z"/>
<path d="M5481 1334 c0 -11 3 -14 6 -6 3 7 2 16 -1 19 -3 4 -6 -2 -5 -13z"/>
<path d="M5282 1495 c0 -16 2 -22 5 -12 2 9 2 23 0 30 -3 6 -5 -1 -5 -18z"/>
<path d="M5291 1455 c0 -5 7 -26 14 -45 9 -23 14 -28 14 -15 0 11 -6 31 -14
45 -8 14 -14 21 -14 15z"/>
<path d="M6040 831 c0 -6 5 -13 10 -16 6 -3 10 1 10 9 0 9 -4 16 -10 16 -5 0
-10 -4 -10 -9z"/>
<path d="M6082 650 c0 -14 2 -19 5 -12 2 6 2 18 0 25 -3 6 -5 1 -5 -13z"/>
<path d="M5406 682 c-3 -6 -1 -14 5 -17 15 -10 25 3 12 16 -7 7 -13 7 -17 1z"/>
<path d="M5110 616 c0 -59 2 -65 20 -63 15 1 20 8 20 28 0 26 -26 99 -35 99
-3 0 -5 -29 -5 -64z"/>
<path d="M4744 464 c-18 -14 -18 -14 6 -3 31 14 36 19 24 19 -6 0 -19 -7 -30
-16z"/>
<path d="M6374 493 c4 -26 10 -72 13 -100 6 -58 20 -66 55 -34 14 14 19 27 15
43 -34 140 -31 133 -61 136 l-29 4 7 -49z"/>
<path d="M7304 2136 c-3 -8 -1 -31 6 -50 14 -44 7 -56 -34 -56 -43 0 -69 -20
-64 -50 5 -34 20 -34 58 0 42 37 58 38 66 3 3 -16 9 -41 13 -58 7 -30 35 -45
52 -28 5 5 1 31 -8 60 -22 70 -11 83 68 83 63 0 76 9 59 40 -14 25 -31 25 -72
0 -18 -11 -45 -20 -60 -20 -28 0 -31 6 -40 65 -4 24 -36 32 -44 11z"/>
<path d="M9457 2070 c-14 -17 -36 -48 -48 -70 -13 -22 -26 -40 -31 -40 -4 0
-8 -9 -8 -20 0 -12 -7 -20 -16 -20 -18 0 -44 -23 -44 -40 0 -6 -5 -8 -12 -4
-7 5 -9 0 -6 -14 4 -12 0 -26 -8 -33 -8 -7 -12 -20 -9 -30 4 -11 2 -19 -4 -19
-6 0 -11 -11 -11 -24 0 -13 -7 -26 -15 -30 -8 -3 -15 -15 -15 -26 0 -11 -7
-20 -15 -20 -8 0 -16 -4 -16 -10 -1 -5 -2 -13 -4 -17 -1 -5 -5 -21 -9 -38 -18
-76 -41 -152 -51 -170 -7 -11 -11 -38 -9 -60 2 -22 0 -49 -5 -60 -9 -21 -34
-140 -34 -165 -1 -8 2 -28 6 -45 5 -19 4 -25 -1 -16 -7 9 -11 10 -17 2 -4 -7
-1 -18 5 -26 10 -12 10 -15 -1 -15 -12 0 -12 -2 0 -9 8 -5 11 -16 7 -26 -3 -9
-3 -22 1 -28 12 -19 13 -41 1 -54 -8 -10 -6 -13 6 -13 9 0 16 -5 16 -11 0 -5
-5 -7 -11 -3 -6 3 -3 -5 6 -20 9 -14 15 -32 12 -40 -3 -8 -1 -17 6 -19 9 -3 9
-9 0 -24 -9 -15 -9 -23 0 -32 10 -10 13 -23 16 -79 1 -7 5 -11 10 -8 4 3 5
-13 1 -37 -5 -23 -5 -44 0 -47 4 -3 10 -14 12 -25 1 -11 9 -23 17 -26 8 -3 16
-14 17 -24 6 -42 15 -66 23 -61 4 3 6 -6 3 -19 -3 -18 0 -25 12 -25 9 0 16 -8
16 -20 0 -18 10 -24 35 -21 6 1 2 -5 -7 -12 -24 -19 -23 -30 3 -22 15 5 22 2
26 -13 6 -25 33 -38 33 -16 0 10 9 4 26 -16 16 -18 33 -29 41 -26 11 5 13 1 7
-17 -6 -21 -6 -21 16 3 13 15 20 19 17 9 -4 -13 -1 -15 15 -11 12 3 19 1 16
-4 -3 -5 0 -15 8 -22 10 -9 14 -9 14 -1 0 7 10 5 27 -6 23 -15 25 -15 20 -2
-5 14 -2 15 19 7 14 -6 42 -10 62 -10 20 0 32 -4 25 -8 -6 -4 29 -5 79 -3 64
2 88 0 84 -8 -7 -10 34 -18 59 -10 6 1 27 2 48 0 20 -1 50 5 65 13 16 8 39 12
50 9 13 -3 22 -1 22 6 0 6 15 11 34 11 19 0 38 5 41 11 4 6 13 8 21 5 8 -3 14
-2 14 3 0 5 16 16 35 25 l35 17 0 82 0 83 -82 11 c-116 16 -259 64 -353 119
-154 91 -353 325 -438 516 -66 149 -81 220 -81 408 0 138 2 162 23 220 45 124
97 235 138 298 46 68 49 79 10 32z"/>
<path d="M2630 2040 c-9 -6 -10 -10 -3 -10 6 0 15 5 18 10 8 12 4 12 -15 0z"/>
<path d="M2538 2025 c-26 -7 -49 -10 -52 -7 -4 3 -6 0 -6 -6 0 -7 -6 -12 -14
-12 -8 0 -17 -6 -19 -12 -4 -9 -6 -9 -6 1 -1 10 -9 7 -28 -10 -15 -13 -22 -16
-15 -7 12 15 10 16 -20 11 -18 -2 -103 -22 -188 -43 -309 -77 -617 -150 -703
-166 -76 -15 -90 -15 -98 -3 -7 11 -9 11 -9 -3 0 -17 -16 -23 -47 -19 -7 1
-13 -4 -13 -12 0 -11 -63 -47 -84 -47 -19 0 -73 -77 -61 -88 2 -3 7 3 11 12 3
9 10 13 15 10 5 -3 2 -12 -6 -20 -8 -9 -13 -20 -9 -25 3 -6 1 -16 -5 -22 -7
-9 -6 -29 4 -67 8 -29 12 -57 9 -61 -2 -4 0 -9 5 -11 5 -1 11 -16 13 -33 2
-16 7 -33 11 -36 27 -20 -526 -167 -898 -239 -60 -11 -139 -29 -175 -40 -36
-10 -84 -24 -107 -30 -37 -9 -43 -15 -43 -37 0 -21 3 -24 22 -20 116 30 289
67 358 76 78 11 158 28 235 51 17 5 93 21 170 36 77 15 174 33 215 41 136 26
150 26 204 -4 27 -16 53 -35 57 -43 26 -49 79 -180 79 -194 0 -9 11 -38 24
-64 13 -26 29 -72 36 -102 8 -30 17 -59 22 -65 4 -5 8 -18 8 -30 0 -12 5 -26
12 -33 7 -7 9 -12 6 -12 -6 0 5 -41 40 -140 10 -30 26 -80 35 -110 9 -30 23
-77 32 -103 8 -26 15 -56 15 -65 0 -10 4 -22 9 -28 8 -8 26 -71 38 -139 3 -16
10 -36 15 -43 8 -9 348 -12 1639 -12 l1629 0 0 44 c0 26 -5 46 -12 49 -19 7 2
25 32 29 14 1 27 6 30 10 3 4 47 18 98 31 51 13 95 27 100 31 10 11 -45 1 -96
-18 -24 -8 -53 -17 -65 -19 -12 -2 -33 -9 -47 -14 -14 -6 -29 -8 -33 -6 -5 3
-20 0 -35 -6 -15 -5 -43 -12 -62 -15 -64 -10 -140 -30 -140 -37 0 -7 31 -3 95
11 85 19 95 20 95 11 0 -5 -22 -12 -50 -16 -27 -4 -50 -10 -50 -15 0 -4 -13
-10 -30 -12 -16 -3 -30 -2 -30 2 0 4 -13 5 -29 2 -16 -2 -32 1 -35 7 -4 6 -11
52 -17 103 -5 50 -13 108 -19 127 -5 20 -21 122 -35 226 -28 212 -47 305 -59
287 -4 -7 -5 -21 -1 -31 5 -16 2 -19 -17 -16 -42 6 -68 17 -62 26 3 5 -3 6
-12 2 -12 -4 -14 -8 -5 -11 9 -3 8 -8 -4 -22 -20 -22 -69 -15 -60 9 5 13 4 14
-7 3 -11 -11 -10 -16 6 -28 19 -13 19 -14 -7 -14 -31 0 -33 -6 -10 -32 9 -11
11 -18 5 -18 -7 0 -12 4 -12 9 0 4 -11 6 -24 4 -28 -6 -43 -33 -24 -44 10 -7
10 -13 1 -28 -6 -10 -9 -28 -6 -40 3 -12 1 -21 -6 -21 -7 0 -11 14 -9 34 1 19
6 32 11 29 5 -3 8 0 5 8 -2 7 -13 16 -24 19 -11 3 -19 12 -19 20 1 8 -4 21 -9
29 -9 11 -7 13 12 7 14 -5 22 -3 22 4 0 6 -4 9 -9 6 -5 -3 -14 1 -21 9 -7 8
-9 15 -6 15 12 0 51 -23 58 -34 5 -6 8 -1 8 12 0 15 -6 22 -19 22 -11 0 -25 2
-33 5 -7 3 -22 -1 -33 -10 -19 -14 -19 -15 -1 -8 13 4 17 2 14 -8 -3 -8 -1
-25 4 -38 8 -23 8 -23 -17 -7 -24 16 -25 16 -19 -13 7 -35 -14 -51 -61 -46
-16 2 -36 -1 -43 -7 -10 -9 -16 -8 -23 3 -10 17 -12 39 -1 23 8 -12 90 -13
110 -1 24 16 11 22 -40 22 -45 0 -53 3 -56 20 -2 12 0 16 5 9 4 -6 18 -14 29
-18 19 -6 21 -3 16 21 -5 25 -6 25 -13 8 -6 -17 -8 -15 -8 10 -1 23 -4 27 -11
15 -7 -12 -10 -12 -10 -1 0 7 -6 11 -14 8 -10 -4 -13 -1 -10 8 4 10 0 12 -17
8 l-22 -6 21 -18 c12 -9 22 -20 22 -22 0 -10 -63 2 -74 13 -8 8 -3 8 17 1 42
-16 45 -13 12 14 -23 19 -26 25 -12 25 9 0 17 4 17 10 0 5 12 16 28 24 35 20
24 20 -22 1 -20 -9 -40 -23 -43 -33 -4 -9 -13 -23 -20 -30 -16 -16 -17 -29 -3
-37 13 -8 13 -25 1 -25 -13 0 -25 61 -14 69 13 8 24 41 15 41 -5 0 -13 -5 -19
-11 -9 -9 -11 -2 -9 25 3 29 0 36 -14 36 -13 0 -17 6 -13 20 4 15 0 20 -13 20
-16 0 -17 -2 -4 -10 11 -7 11 -10 2 -10 -7 0 -17 10 -22 23 -6 15 -9 17 -9 5
-1 -9 -7 -18 -13 -21 -7 -2 -9 -8 -5 -13 4 -5 12 -3 16 5 6 9 10 6 16 -11 12
-40 13 -48 5 -43 -5 3 -11 -1 -14 -7 -3 -7 -3 -3 0 9 4 18 -1 26 -20 34 -19 9
-23 16 -17 27 6 10 4 20 -4 29 -18 17 -25 16 -25 -2 0 -16 -1 -16 -38 -20 -24
-2 -39 10 -23 19 5 4 12 2 16 -4 3 -5 10 -10 16 -10 14 0 11 28 -3 33 -7 3 1
6 18 6 16 1 35 -4 42 -11 9 -9 10 -6 7 12 -2 13 1 30 7 37 8 11 7 12 -6 7 -9
-3 -16 -12 -16 -20 0 -20 -46 -18 -54 2 -5 13 -2 15 16 11 21 -5 21 -5 6 7
-16 12 -16 14 7 24 14 6 33 9 42 6 10 -2 7 1 -7 8 -14 7 -28 17 -32 23 -5 6
-8 5 -8 -2 0 -8 -13 -13 -32 -13 -25 0 -29 -3 -20 -12 7 -7 12 -16 12 -21 0
-5 -7 -2 -15 7 -24 24 -19 47 10 42 16 -3 28 1 34 12 14 25 -25 48 -84 49 -27
0 -37 -2 -22 -4 23 -4 26 -7 16 -19 -15 -19 -2 -18 17 1 9 8 23 15 32 15 14 0
14 -2 3 -9 -7 -5 -11 -13 -7 -19 7 -11 -40 -26 -55 -16 -5 3 -16 0 -24 -6 -11
-9 -15 -9 -15 -1 0 6 5 11 10 11 6 0 10 7 10 16 0 8 -4 12 -10 9 -5 -3 -10 3
-10 14 0 12 -5 21 -11 21 -6 0 -8 -9 -4 -21 5 -15 4 -19 -4 -15 -6 4 -11 16
-11 26 0 10 -4 21 -9 24 -5 3 -9 -10 -8 -29 1 -28 5 -35 21 -36 18 -1 19 -2 3
-6 -10 -3 -27 3 -38 13 -19 17 -21 17 -59 -4 -32 -17 -40 -18 -40 -6 0 12 19
19 43 15 4 0 7 4 7 10 0 7 12 10 30 7 27 -4 30 -2 23 16 -3 12 -6 28 -5 37 0
8 -9 21 -20 28 -11 7 -17 8 -13 2 3 -6 2 -11 -4 -11 -5 0 -22 -5 -36 -10 -23
-9 -25 -13 -14 -26 10 -12 10 -15 -2 -12 -18 4 -29 19 -29 41 0 13 8 17 35 17
19 0 35 5 35 11 0 7 -9 9 -24 5 -17 -4 -26 -1 -30 11 -4 9 -4 18 -1 21 3 3 5
0 5 -6 0 -12 55 -10 67 2 6 6 -4 7 -76 10 -22 0 -43 4 -47 8 -4 4 -13 3 -19
-2 -21 -17 -39 14 -23 39 7 11 10 22 7 25 -8 9 -60 15 -54 7 7 -12 -37 -22
-49 -11 -6 4 -15 8 -21 8 -5 0 -11 5 -13 10 -2 6 15 13 37 17 30 5 38 10 34
22 -4 10 -8 11 -13 3 -4 -6 -22 -13 -40 -15 l-33 -4 21 20 c27 25 28 33 2 17
-11 -7 -20 -15 -20 -18 0 -13 -42 -8 -47 6 -3 8 -10 14 -16 14 -7 0 -7 -4 1
-12 18 -18 15 -68 -4 -68 -8 0 -12 5 -9 10 3 6 -1 18 -11 27 -11 11 -13 18 -5
21 11 4 16 42 5 42 -3 0 -21 -16 -40 -35 -33 -35 -54 -44 -54 -25 0 6 5 10 10
10 15 0 45 31 53 53 6 15 3 17 -12 12 -11 -3 -23 -1 -26 6 -6 8 -10 7 -17 -2
-7 -10 -8 -8 -5 9 4 17 1 22 -14 22 -10 0 -19 -4 -19 -10 0 -5 -5 -10 -11 -10
-8 0 -7 6 2 17 12 15 12 16 -3 10 -12 -4 -15 -2 -11 9 6 17 15 18 31 2 9 -9
12 -9 12 1 0 10 3 11 13 3 9 -8 17 -8 27 0 12 8 12 9 -2 4 -10 -3 -20 -1 -23
4 -4 6 -18 10 -33 11 l-27 1 25 8 c17 5 19 8 8 9 -10 1 -18 5 -18 11 0 5 8 7
18 4 14 -5 15 -4 2 5 -22 16 -40 13 -41 -6 -1 -10 -5 -2 -9 17 l-7 35 -3 -30
c-1 -16 -2 -33 -1 -37 2 -14 -13 -8 -39 14 -15 13 -20 23 -13 25 7 2 10 10 7
18 -3 7 3 15 13 18 14 4 14 5 -4 6 -22 1 -34 21 -13 21 6 0 2 8 -7 18 -10 10
-24 17 -30 14 -7 -2 -13 1 -13 8 0 6 -4 9 -9 5 -5 -3 -12 -1 -15 4 -4 5 5 8
19 6 16 -1 24 2 22 9 -2 6 -12 10 -21 10 -9 -1 -16 2 -16 7 0 5 -13 9 -30 9
-30 0 -41 -14 -17 -23 9 -4 9 -6 0 -6 -17 -1 -26 16 -16 31 8 13 63 19 63 7 0
-4 11 -9 25 -11 14 -3 25 -1 25 3 0 5 -10 9 -22 9 -21 0 -21 0 -2 14 14 11 21
11 27 3 6 -9 7 -8 5 2 -2 7 -19 15 -37 16 -19 2 -28 -1 -22 -5 10 -5 9 -9 -3
-13 -22 -9 -40 27 -23 45 8 7 12 19 9 26 -2 6 5 12 15 13 14 0 12 3 -7 11 -14
5 -33 14 -43 20 -11 5 -36 10 -58 10 -22 0 -42 4 -45 9 -3 5 -10 6 -16 3 -6
-4 -5 -9 3 -15 25 -15 3 -18 -25 -4 -15 8 -30 14 -34 12 -4 -1 -8 3 -9 8 -2 6
3 10 10 10 6 1 11 6 10 13 -2 7 10 12 30 13 31 0 31 1 7 10 -19 8 -22 12 -10
19 8 5 19 6 25 3 5 -3 5 0 -2 7 -9 10 -16 10 -26 2 -7 -6 -23 -10 -35 -7 -22
4 -30 -9 -12 -20 6 -3 10 -1 10 5 0 6 4 8 10 5 15 -9 -12 -33 -32 -28 -9 3
-14 11 -12 18 4 10 -1 12 -15 8 -15 -4 -21 -1 -21 10 0 10 7 14 23 10 14 -3
18 -2 10 4 -7 5 -14 22 -16 39 -2 16 -7 35 -11 42 -5 8 2 20 16 32 27 22 28
22 -34 5z m-8 -45 c13 -11 21 -22 19 -24 -2 -2 -17 7 -32 20 -15 13 -24 24
-19 24 5 0 19 -9 32 -20z m-213 -36 c-3 -3 -12 -4 -19 -1 -8 3 -5 6 6 6 11 1
17 -2 13 -5z m216 -46 c-2 -5 -11 -4 -18 2 -8 7 -20 8 -27 4 -10 -6 -10 -4 0
9 11 13 17 14 32 5 10 -7 16 -16 13 -20z m-206 -4 c-3 -3 -12 -4 -19 -1 -8 3
-5 6 6 6 11 1 17 -2 13 -5z m130 -46 c-3 -8 -6 -5 -6 6 -1 11 2 17 5 13 3 -3
4 -12 1 -19z m40 -3 c-15 -16 -19 -13 -11 9 3 9 10 13 15 10 5 -3 3 -11 -4
-19z m166 -76 c-4 -15 -8 -17 -14 -8 -6 11 4 28 18 29 0 0 -1 -9 -4 -21z m107
11 c0 -5 -4 -10 -10 -10 -5 0 -10 5 -10 10 0 6 5 10 10 10 6 0 10 -4 10 -10z
m30 6 c0 -3 -4 -8 -10 -11 -5 -3 -10 -1 -10 4 0 6 5 11 10 11 6 0 10 -2 10 -4z
m17 -31 c-4 -8 -11 -15 -17 -15 -6 0 -6 7 2 20 14 22 24 19 15 -5z m-92 5 c-3
-5 -10 -10 -16 -10 -5 0 -9 5 -9 10 0 6 7 10 16 10 8 0 12 -4 9 -10z m-58 -42
c-3 -8 -6 -5 -6 6 -1 11 2 17 5 13 3 -3 4 -12 1 -19z m154 -105 c-12 -20 -14
-14 -5 12 4 9 9 14 11 11 3 -2 0 -13 -6 -23z m-31 -33 c0 -5 -4 -10 -10 -10
-5 0 -10 5 -10 10 0 6 5 10 10 10 6 0 10 -4 10 -10z m110 -40 c0 -5 -5 -10
-11 -10 -5 0 -7 5 -4 10 3 6 8 10 11 10 2 0 4 -4 4 -10z m-46 -36 c6 -15 4
-15 -11 -3 -10 7 -20 15 -22 16 -2 2 3 3 11 3 9 0 19 -7 22 -16z m376 -224 c0
-10 -6 -20 -13 -23 -10 -4 -12 3 -9 24 5 31 22 30 22 -1z m-105 -1 c10 -15 -1
-23 -20 -15 -9 3 -13 10 -10 16 8 13 22 13 30 -1z m245 -25 c0 -2 -7 -4 -15
-4 -8 0 -15 4 -15 10 0 5 7 7 15 4 8 -4 15 -8 15 -10z m-300 -8 c0 -3 -4 -8
-10 -11 -5 -3 -10 -1 -10 4 0 6 5 11 10 11 6 0 10 -2 10 -4z m70 -5 c0 -5 3
-18 6 -28 6 -16 5 -16 -9 2 -19 23 -21 35 -7 35 6 0 10 -4 10 -9z m198 -46 c1
-29 -2 -35 -18 -35 -11 0 -20 5 -20 10 0 6 -7 10 -16 10 -8 0 -12 5 -8 11 4 8
9 8 17 0 17 -17 22 -13 23 14 1 14 -2 22 -7 19 -10 -6 -12 9 -2 19 12 13 30
-13 31 -48z m-64 36 c2 -3 -3 -19 -10 -36 l-13 -30 -1 27 c0 14 6 29 13 32 6
3 2 3 -10 0 -13 -3 -31 -1 -40 5 -14 8 -10 10 20 9 21 -1 39 -4 41 -7z m-74
-11 c13 -8 13 -10 1 -10 -12 0 -12 -3 -3 -12 7 -7 12 -15 12 -20 0 -4 -11 4
-25 18 -14 14 -25 27 -25 29 0 8 24 5 40 -5z m203 -47 c-7 -2 -21 -2 -30 0
-10 3 -4 5 12 5 17 0 24 -2 18 -5z m47 -13 c0 -5 -2 -10 -4 -10 -3 0 -8 5 -11
10 -3 6 -1 10 4 10 6 0 11 -4 11 -10z m-230 -4 c0 -2 -7 -9 -15 -16 -13 -11
-14 -10 -9 4 5 14 24 23 24 12z m80 -6 c13 -9 13 -11 0 -19 -10 -7 -17 -6 -22
2 -17 26 -5 35 22 17z m57 -7 c-4 -3 -2 -12 3 -18 8 -9 6 -14 -4 -18 -10 -4
-13 -1 -9 9 3 7 1 14 -5 14 -5 0 -13 -7 -16 -16 -4 -9 -9 -14 -12 -11 -10 10
16 47 33 47 9 0 13 -3 10 -7z m38 -3 c3 -5 2 -10 -4 -10 -5 0 -13 5 -16 10 -3
6 -2 10 4 10 5 0 13 -4 16 -10z m45 -32 c0 -5 -9 -8 -20 -8 -18 0 -19 3 -9 21
9 17 13 19 20 8 5 -8 9 -17 9 -21z m105 -8 c0 -34 -10 -39 -25 -11 -12 24 -13
34 -1 26 5 -3 12 -1 16 5 9 15 10 13 10 -20z m-135 -20 c0 -5 7 -10 15 -10 8
0 15 -5 15 -11 0 -8 -12 -10 -35 -6 -28 5 -35 2 -36 -11 0 -12 -2 -13 -6 -4
-3 7 3 22 13 32 21 21 34 25 34 10z m-183 -22 c-3 -8 -6 -5 -6 6 -1 11 2 17 5
13 3 -3 4 -12 1 -19z m310 -65 c0 -21 -2 -29 -4 -18 -3 11 -10 23 -17 28 -8 5
-7 10 4 17 8 5 15 10 16 10 0 0 1 -17 1 -37z m-31 -37 c-2 -6 -5 -4 -5 5 -1
11 -9 15 -26 14 -14 -2 -23 1 -20 5 3 5 12 7 20 3 10 -3 15 1 16 13 0 15 2 14
10 -5 5 -13 8 -29 5 -35z m194 29 c0 -9 -6 -12 -16 -8 -13 5 -13 7 -2 14 17
11 18 11 18 -6z m-60 -5 c0 -5 -7 -10 -15 -10 -8 0 -15 5 -15 10 0 6 7 10 15
10 8 0 15 -4 15 -10z m30 -14 c0 -3 -4 -8 -10 -11 -5 -3 -10 -1 -10 4 0 6 5
11 10 11 6 0 10 -2 10 -4z m156 -178 c4 -6 3 -8 -4 -4 -6 3 -18 -1 -26 -10 -9
-8 -16 -11 -16 -5 0 5 8 15 18 20 21 13 20 13 28 -1z m74 -28 c0 -5 -4 -10
-10 -10 -5 0 -10 5 -10 10 0 6 5 10 10 10 6 0 10 -4 10 -10z m-39 -23 c-10 -9
-11 -8 -5 6 3 10 9 15 12 12 3 -3 0 -11 -7 -18z m-51 3 c0 -5 -5 -10 -11 -10
-5 0 -7 5 -4 10 3 6 8 10 11 10 2 0 4 -4 4 -10z m110 -15 c0 -8 -2 -15 -4 -15
-2 0 -6 7 -10 15 -3 8 -1 15 4 15 6 0 10 -7 10 -15z m597 -7 c-3 -8 -6 -5 -6
6 -1 11 2 17 5 13 3 -3 4 -12 1 -19z m-162 -8 c-3 -5 -1 -10 5 -10 6 0 8 -5 4
-11 -4 -8 -9 -7 -15 2 -7 12 -3 29 7 29 3 0 2 -4 -1 -10z m-491 -12 c-3 -4
-11 -5 -19 -1 -21 7 -19 12 4 10 11 0 18 -5 15 -9z m6 -28 c0 -5 -5 -10 -11
-10 -5 0 -7 5 -4 10 3 6 8 10 11 10 2 0 4 -4 4 -10z m169 -75 c0 -5 -10 8 -23
30 -12 22 -20 44 -18 49 5 10 40 -58 41 -79z m-114 65 c3 -5 -1 -10 -9 -10 -9
0 -16 5 -16 10 0 6 4 10 9 10 6 0 13 -4 16 -10z m408 -26 c-4 -10 -9 -12 -15
-6 -12 12 -1 35 12 27 5 -3 6 -13 3 -21z m-93 -3 c0 -4 -10 -7 -22 -7 -18 1
-23 -5 -24 -27 -1 -38 -14 -47 -14 -9 0 35 23 64 45 56 8 -4 15 -9 15 -13z
m-265 -40 c-3 -6 -11 -11 -16 -11 -5 0 -4 6 3 14 14 16 24 13 13 -3z m255 -26
c0 -5 -5 -3 -10 5 -5 8 -10 20 -10 25 0 6 5 3 10 -5 5 -8 10 -19 10 -25z m-13
-37 c-3 -8 -6 -5 -6 6 -1 11 2 17 5 13 3 -3 4 -12 1 -19z m48 -28 c3 -6 -1 -7
-9 -4 -18 7 -21 14 -7 14 6 0 13 -4 16 -10z"/>
<path d="M2672 2024 c10 -10 20 -16 22 -13 3 3 -5 11 -17 18 -21 13 -21 12 -5
-5z"/>
<path d="M2643 2014 c9 -3 15 -10 12 -15 -4 -5 -1 -9 5 -9 19 0 5 25 -16 27
-16 2 -16 1 -1 -3z"/>
<path d="M2573 1987 c13 -11 15 -16 5 -20 -7 -2 -10 -8 -6 -12 4 -4 14 0 23 9
9 9 21 16 26 16 13 0 11 -18 -3 -23 -7 -3 -8 -6 -3 -6 6 0 16 3 24 8 12 8 11
12 -3 27 -14 13 -20 14 -26 5 -6 -10 -13 -10 -31 -1 -22 10 -22 10 -6 -3z"/>
<path d="M2590 1935 c0 -10 29 -24 34 -17 3 6 -3 12 -14 15 -11 3 -20 4 -20 2z"/>
<path d="M2650 1840 c0 -5 5 -10 10 -10 6 0 10 5 10 10 0 6 -4 10 -10 10 -5 0
-10 -4 -10 -10z"/>
<path d="M2762 1841 c4 -14 57 -35 66 -26 2 2 -9 7 -24 11 -16 4 -33 12 -37
18 -6 7 -7 6 -5 -3z"/>
<path d="M2932 1714 c-7 -8 -8 -14 -3 -14 10 0 25 19 20 25 -2 1 -10 -3 -17
-11z"/>
<path d="M2925 1671 c-3 -5 0 -13 6 -17 7 -4 9 -3 5 4 -3 5 0 13 6 15 9 4 10
6 1 6 -6 1 -14 -3 -18 -8z"/>
<path d="M3086 1653 c-6 -14 -5 -15 5 -6 7 7 10 15 7 18 -3 3 -9 -2 -12 -12z"/>
<path d="M9364 1656 c-3 -8 -4 -88 -1 -178 5 -171 24 -284 52 -304 8 -6 15
-19 15 -28 0 -53 124 -232 239 -346 155 -153 307 -228 499 -246 l72 -7 0 555
0 555 -167 6 c-91 4 -287 7 -435 7 -225 0 -270 -2 -274 -14z"/>
<path d="M2931 1622 c-1 -8 -6 -10 -13 -6 -8 5 -7 1 2 -10 15 -19 26 -7 17 17
-4 9 -6 9 -6 -1z"/>
<path d="M2993 1585 c-3 -9 -3 -18 -1 -21 3 -3 8 4 11 16 6 23 -1 27 -10 5z"/>
<path d="M4638 1439 c-19 -11 -24 -54 -8 -64 6 -3 10 -21 10 -40 0 -19 5 -37
10 -40 6 -3 10 -19 10 -35 0 -49 51 -79 79 -46 17 20 3 120 -25 184 -24 53
-40 62 -76 41z"/>
<path d="M3097 1416 c-10 -8 -15 -16 -10 -19 4 -2 17 4 27 14 22 22 10 25 -17
5z"/>
<path d="M4804 1379 c-14 -15 -16 -24 -8 -37 22 -34 94 -21 94 16 0 43 -54 56
-86 21z"/>
<path d="M3156 1373 c5 -5 12 -12 15 -16 3 -5 9 -2 12 7 5 12 0 16 -15 16 -12
0 -17 -3 -12 -7z"/>
<path d="M3198 1343 c7 -3 16 -2 19 1 4 3 -2 6 -13 5 -11 0 -14 -3 -6 -6z"/>
<path d="M3371 1320 c0 -8 4 -22 9 -30 12 -18 12 -2 0 25 -6 13 -9 15 -9 5z"/>
<path d="M4532 1319 c-17 -6 -22 -16 -22 -43 0 -42 28 -63 59 -47 24 13 30 30
24 63 -6 29 -28 39 -61 27z"/>
<path d="M3275 1270 c3 -5 8 -10 11 -10 2 0 4 5 4 10 0 6 -5 10 -11 10 -5 0
-7 -4 -4 -10z"/>
<path d="M3390 1251 c0 -12 6 -21 15 -21 8 0 15 4 15 9 0 5 -7 14 -15 21 -13
10 -15 9 -15 -9z"/>
<path d="M3644 1117 c-9 -19 -7 -23 8 -24 19 -2 21 2 10 29 -6 15 -8 14 -18
-5z"/>
<path d="M5169 1114 c16 -51 31 -87 37 -82 5 6 -24 88 -37 102 -5 5 -5 -4 0
-20z"/>
<path d="M3850 965 c0 -5 5 -17 10 -25 5 -8 10 -10 10 -5 0 6 -5 17 -10 25 -5
8 -10 11 -10 5z"/>
<path d="M3830 921 c0 -5 7 -14 15 -21 16 -14 18 -10 9 14 -6 17 -24 22 -24 7z"/>
<path d="M3880 910 c-9 -6 -10 -10 -3 -10 6 0 15 5 18 10 8 12 4 12 -15 0z"/>
<path d="M3921 870 c6 -16 15 -30 21 -30 5 0 6 -4 3 -10 -3 -5 -1 -10 6 -10 6
0 9 8 6 20 -3 11 -1 23 4 26 5 3 9 11 9 17 0 7 -5 4 -11 -5 -12 -22 -29 -23
-29 -4 0 8 -4 17 -10 21 -5 3 -5 -7 1 -25z"/>
<path d="M3875 880 c-3 -5 -1 -10 4 -10 6 0 11 5 11 10 0 6 -2 10 -4 10 -3 0
-8 -4 -11 -10z"/>
<path d="M3990 820 c-8 -5 -12 -11 -10 -14 3 -2 14 2 24 10 22 15 10 19 -14 4z"/>
<path d="M4345 809 c-4 -6 -5 -12 -2 -15 2 -3 7 2 10 11 7 17 1 20 -8 4z"/>
<path d="M3950 801 c0 -6 5 -13 10 -16 6 -3 10 1 10 9 0 9 -4 16 -10 16 -5 0
-10 -4 -10 -9z"/>
<path d="M4300 796 c0 -8 -4 -16 -10 -18 -5 -1 -6 -8 -2 -15 5 -8 11 -3 19 13
6 14 7 26 2 30 -5 3 -9 -1 -9 -10z"/>
<path d="M4452 801 c4 -13 18 -16 19 -4 0 4 -5 9 -11 12 -7 2 -11 -2 -8 -8z"/>
<path d="M4070 791 c0 -6 4 -13 10 -16 6 -3 7 1 4 9 -7 18 -14 21 -14 7z"/>
<path d="M4375 760 c3 -5 8 -10 11 -10 2 0 4 5 4 10 0 6 -5 10 -11 10 -5 0 -7
-4 -4 -10z"/>
<path d="M4105 730 c4 -6 11 -8 16 -5 14 9 11 15 -7 15 -8 0 -12 -5 -9 -10z"/>
<path d="M7333 678 l-143 -40 0 -34 c0 -19 2 -34 5 -34 3 0 46 13 97 29 51 16
125 38 165 50 67 20 72 23 64 44 -4 12 -17 23 -27 24 -10 1 -83 -16 -161 -39z"/>
<path d="M4126 681 c-3 -5 1 -12 10 -15 8 -3 13 -2 9 3 -3 5 1 12 7 14 8 4 7
6 -4 6 -9 1 -19 -3 -22 -8z"/>
<path d="M9188 453 c7 -3 16 -2 19 1 4 3 -2 6 -13 5 -11 0 -14 -3 -6 -6z"/>
<path d="M5346 258 c-58 -12 -59 -21 -1 -13 52 8 99 25 60 22 -11 0 -38 -5
-59 -9z"/>
<path d="M5208 224 c-48 -15 -64 -34 -29 -34 10 0 21 7 25 15 3 8 16 15 28 15
13 0 30 5 38 10 23 15 -4 12 -62 -6z"/>
<path d="M6840 176 c0 -35 4 -46 15 -46 21 0 29 24 18 57 -16 46 -33 40 -33
-11z"/>
<path d="M5465 165 c-33 -7 -111 -29 -172 -49 -89 -29 -113 -41 -113 -55 0
-10 7 -24 15 -31 13 -11 34 -8 118 18 56 18 125 37 152 43 85 20 101 36 73 71
-11 13 -21 14 -73 3z"/>
<path d="M6720 151 c0 -33 11 -51 31 -51 24 0 25 15 2 30 -13 8 -14 13 -5 16
19 9 14 24 -8 24 -13 0 -20 -7 -20 -19z"/>
<path d="M6588 99 c-36 -20 -11 -63 31 -52 17 4 21 12 19 32 -3 28 -23 36 -50
20z"/>
<path d="M6018 73 c7 -3 16 -2 19 1 4 3 -2 6 -13 5 -11 0 -14 -3 -6 -6z"/>
<path d="M6493 73 c-19 -7 -16 -27 7 -48 24 -21 28 -19 36 23 6 27 4 32 -12
31 -11 0 -25 -3 -31 -6z"/>
<path d="M5618 50 c6 -8 12 -22 12 -32 0 -15 8 -18 43 -17 36 0 39 2 18 10
-13 5 -37 19 -55 31 -17 12 -25 15 -18 8z"/>
<path d="M6378 25 c-4 -19 -1 -25 12 -25 13 0 17 6 13 20 -8 31 -20 33 -25 5z"/>
<path d="M5818 3 c6 -2 18 -2 25 0 6 3 1 5 -13 5 -14 0 -19 -2 -12 -5z"/>
</g>
</svg>
