<?xml version="1.0" encoding="UTF-8" standalone="no"?>
<!-- Created with Inkscape (http://www.inkscape.org/) -->

<svg
   version="1.1"
   id="svg1"
   width="1024"
   height="553"
   viewBox="0 0 1024 553"
   sodipodi:docname="newlogoFatFitness.svg"
   xml:space="preserve"
   inkscape:version="1.4 (86a8ad7, 2024-10-11)"
   xmlns:inkscape="http://www.inkscape.org/namespaces/inkscape"
   xmlns:sodipodi="http://sodipodi.sourceforge.net/DTD/sodipodi-0.dtd"
   xmlns="http://www.w3.org/2000/svg"
   xmlns:svg="http://www.w3.org/2000/svg"><defs
     id="defs1"><rect
       x="23.89916"
       y="106.21849"
       width="225.71429"
       height="107.54622"
       id="rect7" /></defs><sodipodi:namedview
     id="namedview1"
     pagecolor="#ffffff"
     bordercolor="#000000"
     borderopacity="0.25"
     inkscape:showpageshadow="2"
     inkscape:pageopacity="0.0"
     inkscape:pagecheckerboard="0"
     inkscape:deskcolor="#d1d1d1"
     showguides="true"
     inkscape:zoom="0.75316456"
     inkscape:cx="398.98319"
     inkscape:cy="132.10924"
     inkscape:window-width="1920"
     inkscape:window-height="1051"
     inkscape:window-x="-9"
     inkscape:window-y="-9"
     inkscape:window-maximized="1"
     inkscape:current-layer="g1" /><g
     inkscape:groupmode="layer"
     inkscape:label="Image"
     id="g1"
     style="display:inline"><g
       transform="matrix(0.119029,0,0,-0.1093778,-130.03592,1002.229)"
       fill="#000000"
       stroke="none"
       id="g120"><path
         d="m 5128,9110 c -130,-10 -209,-25 -350,-66 -281,-82 -472,-181 -695,-361 -185,-149 -414,-469 -482,-671 -12,-35 -33,-80 -46,-100 -34,-51 -56,-147 -59,-255 l -3,-91 -61,-17 c -104,-29 -154,-80 -167,-169 -8,-57 16,-177 51,-247 33,-69 73,-97 148,-103 l 60,-5 26,-101 c 42,-159 93,-277 173,-396 l 45,-67 -112,-35 c -153,-47 -900,-232 -1181,-291 -44,-9 -109,-25 -145,-35 -36,-10 -77,-21 -92,-24 l -28,-6 v -118 c 0,-64 4,-196 10,-292 5,-96 14,-348 21,-560 6,-212 14,-388 18,-392 4,-4 55,8 113,26 58,19 144,42 190,51 45,9 124,27 173,41 50,13 151,37 225,53 74,15 187,40 250,55 63,14 205,44 315,66 110,23 271,59 358,81 179,44 213,48 202,22 -41,-101 -46,-130 -42,-213 3,-63 12,-105 35,-163 41,-106 86,-157 174,-201 110,-56 154,-51 589,65 102,27 264,67 360,90 96,22 242,58 324,79 83,22 220,53 305,70 85,17 229,51 320,75 91,25 263,67 384,95 120,27 241,60 270,73 112,52 202,169 225,293 10,49 2,168 -15,254 -9,43 -47,122 -68,139 -25,21 -20,26 47,40 145,29 780,184 922,225 49,14 140,33 202,41 227,29 346,77 432,171 105,114 151,254 132,398 -15,109 -37,166 -88,228 -24,29 -43,58 -43,65 0,12 58,33 91,33 24,0 29,21 29,118 0,95 -19,203 -45,252 -25,48 -84,109 -129,132 -95,49 -262,29 -436,-52 -68,-31 -101,-40 -165,-45 -116,-9 -241,-31 -395,-70 -124,-31 -179,-42 -434,-90 -48,-9 -95,-19 -103,-22 -14,-5 -15,5 -8,83 10,116 7,322 -6,403 -11,72 -9,75 52,85 86,14 135,97 133,226 -4,198 -107,309 -261,278 -26,-5 -54,-10 -61,-11 -7,-1 -23,29 -38,73 -37,109 -86,168 -154,189 -24,7 -46,25 -66,53 -62,88 -280,258 -438,342 -149,80 -271,124 -440,161 -128,29 -376,59 -435,54 -9,-1 -60,-5 -113,-9 z m 482,-223 c 80,-20 170,-45 200,-55 83,-30 194,-82 187,-88 -3,-3 -56,-17 -117,-30 -61,-13 -119,-28 -129,-34 -32,-16 -51,-57 -51,-107 0,-45 51,-334 85,-480 9,-36 14,-67 13,-68 -2,-1 -113,-26 -248,-54 -135,-29 -281,-60 -325,-71 -44,-10 -118,-26 -165,-35 -103,-20 -269,-57 -409,-91 -57,-13 -104,-23 -106,-22 -1,2 -25,134 -53,293 -51,288 -51,290 -83,319 -31,28 -35,28 -103,22 -39,-3 -116,-17 -171,-31 -86,-21 -104,-29 -127,-57 -22,-28 -26,-40 -21,-74 4,-31 2,-42 -10,-47 -26,-10 -107,-19 -107,-12 0,17 65,95 76,91 6,-2 11,2 10,9 0,7 51,67 115,132 90,93 147,140 252,211 200,136 365,213 559,262 210,53 258,59 433,55 131,-3 169,-8 295,-38 z m 600,-271 c 0,-2 -9,-6 -20,-9 -11,-3 -20,-1 -20,4 0,5 9,9 20,9 11,0 20,-2 20,-4 z m -190,-28 c 5,-13 18,-75 29,-138 53,-315 225,-1221 247,-1296 5,-19 -1,-22 -86,-35 -63,-10 -94,-12 -100,-4 -8,10 -31,123 -95,480 -41,225 -86,456 -121,615 -38,174 -65,323 -62,345 2,14 18,23 68,36 91,24 109,23 120,-3 z m 299,-122 c 8,-20 39,-175 116,-586 7,-41 34,-172 59,-290 25,-118 46,-221 46,-227 0,-19 -55,-43 -109,-50 -44,-5 -50,-3 -56,17 -4,12 -29,133 -55,268 -27,136 -76,381 -110,546 -34,164 -59,300 -56,303 4,4 130,40 149,42 4,1 12,-10 16,-23 z m 306,-120 c 8,-18 30,-118 49,-222 20,-104 52,-265 72,-359 51,-237 54,-216 -39,-239 -42,-10 -79,-17 -82,-15 -2,3 -20,83 -39,179 -19,96 -43,211 -54,255 -29,117 -76,394 -69,401 7,8 103,32 130,33 11,1 23,-11 32,-33 z M 4329,8213 c 6,-21 33,-164 61,-318 107,-591 202,-1074 221,-1123 5,-14 6,-28 2,-32 -4,-4 -45,-14 -91,-22 -62,-11 -85,-12 -92,-3 -21,25 -39,98 -65,256 -14,90 -37,218 -50,284 -14,66 -36,183 -50,260 -14,77 -42,214 -62,305 -41,190 -73,389 -62,395 16,11 116,34 146,34 29,1 33,-3 42,-36 z m 2644,-120 c 13,-23 19,-55 20,-110 2,-73 1,-78 -23,-89 -14,-7 -46,-15 -72,-19 -44,-7 -48,-5 -48,13 0,22 24,32 82,32 38,0 54,12 43,30 -5,8 -11,8 -19,1 -14,-12 -126,-27 -126,-17 0,4 -7,41 -16,82 -8,42 -12,79 -9,83 11,11 89,30 120,28 21,-2 34,-10 48,-34 z M 4064,7958 c 37,-185 56,-289 76,-408 12,-69 25,-137 30,-152 5,-15 23,-108 40,-205 28,-160 60,-325 71,-362 3,-10 -16,-19 -66,-32 -38,-10 -75,-18 -82,-18 -16,-1 -39,80 -57,199 -22,147 -71,401 -126,665 -28,132 -51,267 -53,300 l -2,60 50,17 c 28,9 62,17 76,17 25,1 27,-3 43,-81 z m 1771,-90 c 35,-214 34,-199 11,-208 -33,-12 -247,-52 -252,-47 -3,3 19,10 48,17 29,7 67,19 83,26 17,8 51,18 75,22 36,6 45,12 45,27 0,13 -6,19 -15,17 -8,-2 -51,-12 -95,-23 -236,-56 -387,-89 -445,-99 -36,-5 -110,-21 -165,-34 -55,-13 -154,-34 -220,-46 -66,-11 -142,-27 -170,-35 -27,-7 -69,-17 -92,-20 -40,-6 -42,-5 -48,22 -3,15 -12,52 -20,81 -12,47 -12,53 3,61 15,8 407,95 742,166 69,14 204,43 300,64 96,21 183,39 192,40 12,1 19,-9 23,-31 z m -2025,-37 c 0,-6 15,-94 34,-198 19,-103 37,-208 41,-233 4,-25 16,-83 27,-130 10,-47 26,-136 34,-199 8,-63 17,-118 20,-122 7,-12 -14,-21 -80,-35 -34,-7 -65,-9 -70,-4 -5,5 -23,98 -42,207 -18,109 -42,239 -53,288 -11,50 -27,119 -36,155 -23,103 -39,215 -32,233 10,28 157,63 157,38 z m 1570,-273 c -236,-53 -317,-71 -455,-97 -83,-16 -175,-36 -205,-45 -51,-15 -100,-21 -100,-12 0,2 -3,13 -7,23 -5,15 -4,16 8,6 11,-8 33,-8 93,3 44,7 82,18 85,22 3,5 20,9 38,10 17,0 41,5 52,11 11,6 39,11 63,11 41,0 109,12 363,65 134,28 184,30 65,3 z m 515,-70 c 8,-53 61,-329 81,-422 7,-38 14,-74 14,-82 0,-8 -29,-19 -77,-29 -43,-9 -128,-30 -190,-46 -61,-16 -168,-41 -238,-54 -70,-14 -155,-32 -189,-41 -57,-15 -214,-49 -435,-95 -52,-11 -98,-16 -101,-12 -4,5 -19,71 -34,148 -14,77 -38,200 -53,273 -14,73 -24,134 -21,137 2,3 49,14 104,25 54,11 144,31 199,44 55,13 190,43 300,66 110,23 288,61 395,85 107,24 205,43 217,44 18,1 22,-6 28,-41 z m -2296,-61 c 5,-12 12,-57 16,-99 l 7,-76 -64,-11 c -36,-6 -72,-11 -81,-11 -10,0 -17,-8 -17,-19 0,-26 13,-33 43,-22 33,13 127,17 128,5 0,-10 -149,-46 -167,-40 -13,5 -54,162 -54,208 0,48 9,56 81,72 90,20 98,19 108,-7 z m 4803,-87 c 78,-22 139,-103 142,-188 l 1,-46 -80,-28 c -123,-44 -115,-43 -115,-19 0,35 -31,100 -51,106 -26,9 -82,-11 -105,-36 -14,-16 -19,-37 -19,-84 0,-59 3,-66 34,-99 19,-19 70,-53 115,-75 99,-50 174,-105 200,-150 14,-25 20,-58 24,-131 4,-87 2,-104 -18,-145 -56,-116 -163,-192 -307,-216 -67,-12 -72,-11 -119,12 -40,20 -54,34 -76,79 -17,34 -30,80 -34,121 l -6,66 53,13 c 30,7 64,18 76,26 12,8 24,14 26,14 3,0 7,-22 11,-49 7,-54 42,-101 76,-101 34,0 87,27 105,53 8,13 18,47 22,75 7,65 -6,86 -83,132 -76,44 -214,143 -242,173 -12,13 -26,47 -32,76 -22,118 -5,223 49,297 70,98 237,156 353,124 z M 6745,7183 c -4,-16 -8,-30 -10,-32 -2,-1 -41,-9 -87,-17 -46,-8 -113,-23 -150,-33 l -66,-18 -5,36 c -2,20 -2,39 0,43 6,12 32,-3 38,-21 7,-23 38,-23 88,-1 23,11 52,20 65,20 12,0 22,5 22,10 0,6 11,10 24,10 14,0 28,5 31,11 4,6 13,8 21,5 8,-3 14,-1 14,4 0,6 5,10 11,10 7,0 9,-10 4,-27 z m 1032,-4 c 63,-20 112,-97 129,-201 6,-34 4,-38 -14,-38 -17,0 -123,-29 -167,-46 -8,-3 -17,12 -24,43 -16,61 -26,73 -66,73 -96,0 -137,-146 -62,-221 16,-17 78,-54 137,-84 172,-86 194,-112 206,-246 8,-92 -4,-137 -56,-218 -62,-96 -159,-147 -300,-158 -60,-4 -69,-2 -112,26 -63,40 -76,64 -92,160 l -13,81 26,6 c 54,12 127,32 144,39 15,6 17,4 12,-17 -9,-34 18,-95 48,-109 33,-15 100,5 126,37 23,29 35,92 26,134 -8,35 -35,57 -170,134 -176,102 -199,135 -199,286 0,90 3,111 23,148 77,149 244,220 398,171 z m -523,-121 c 3,-29 7,-71 8,-93 l 3,-40 -130,-32 c -71,-18 -140,-32 -152,-33 -22,0 -23,-4 -23,-82 0,-46 3,-106 6,-134 l 6,-51 112,28 c 61,15 114,25 117,21 4,-4 9,-46 11,-95 l 4,-87 -35,-10 c -20,-5 -74,-18 -121,-28 l -85,-18 1,-127 c 0,-70 2,-129 5,-132 3,-2 21,0 40,5 55,16 261,62 262,58 1,-2 1,-44 -1,-94 l -3,-91 -127,-27 c -70,-14 -176,-39 -237,-55 -60,-16 -111,-28 -113,-26 -2,2 -7,124 -12,271 -14,419 -30,767 -35,790 -4,19 4,23 103,43 223,47 337,73 352,82 30,17 39,9 44,-43 z m -630,-165 c 5,-71 16,-342 31,-828 l 6,-180 -83,-20 c -46,-11 -88,-21 -94,-23 -13,-3 -84,139 -181,363 -36,83 -67,152 -69,154 -5,5 5,-429 11,-499 l 6,-65 -92,-22 c -51,-12 -95,-20 -98,-17 -3,3 -6,114 -7,247 -1,247 -19,725 -29,794 l -6,38 78,24 c 43,12 80,23 83,24 8,1 57,-93 168,-323 l 104,-215 -6,200 c -4,110 -9,241 -12,292 l -6,92 29,6 c 15,4 55,15 88,24 33,10 63,16 66,14 4,-1 10,-38 13,-80 z m -710,-105 c 3,-7 7,-48 9,-90 l 5,-77 -31,-10 c -18,-5 -60,-15 -95,-22 l -63,-12 7,-65 c 4,-36 12,-234 18,-441 10,-333 9,-377 -4,-382 -47,-21 -166,-47 -174,-39 -5,5 -13,197 -17,427 -4,230 -11,428 -15,441 -5,18 -11,21 -28,16 -54,-17 -123,-34 -143,-34 -24,0 -30,19 -35,115 l -3,59 175,37 c 96,20 218,48 270,62 113,30 119,31 124,15 z m -680,-240 c 19,-290 35,-672 36,-820 0,-150 -2,-167 -17,-172 -49,-14 -156,-36 -160,-32 -5,4 -9,89 -33,636 -6,135 -13,291 -17,347 l -6,101 47,7 c 26,4 66,13 89,21 23,7 45,13 48,13 3,1 9,-45 13,-101 z m -306,-113 -3,-40 -125,-32 c -69,-18 -138,-32 -154,-33 h -29 l 7,-137 c 4,-76 9,-140 12,-142 4,-4 150,27 210,44 20,6 21,2 27,-86 4,-51 5,-94 3,-96 -2,-3 -57,-17 -123,-31 l -118,-27 3,-220 4,-220 -88,-22 c -66,-16 -91,-19 -97,-10 -4,7 -6,104 -5,217 l 3,206 33,44 c 39,54 40,76 4,120 -16,19 -35,46 -42,59 -10,19 -37,308 -39,416 -1,18 15,23 147,49 81,16 194,41 252,55 l 105,26 8,-50 c 4,-27 6,-68 5,-90 z m -708,-114 v -89 l -29,-10 c -16,-6 -63,-16 -103,-23 l -74,-12 3,-141 c 2,-78 7,-231 13,-341 6,-110 11,-253 13,-317 l 2,-117 -98,-23 -98,-24 -4,20 c -2,12 -6,214 -10,450 -3,237 -8,432 -10,435 -3,2 -51,-5 -107,-17 -55,-12 -103,-20 -106,-17 -3,3 -8,43 -10,90 -4,82 -4,84 19,89 13,3 65,15 114,26 50,11 173,40 275,64 102,24 191,44 198,45 9,1 12,-23 12,-88 z m -853,-196 c 30,-86 139,-505 197,-752 10,-40 28,-100 42,-133 13,-33 24,-63 24,-67 0,-5 -41,-16 -90,-26 -50,-10 -96,-20 -104,-23 -10,-4 -18,18 -30,88 -22,120 -22,120 -71,106 -22,-6 -74,-18 -115,-27 l -75,-16 -14,-107 -13,-106 -82,-21 c -44,-11 -91,-23 -102,-27 -21,-6 -21,-5 -8,78 33,208 58,350 76,438 10,52 32,172 48,265 16,94 37,210 47,259 l 18,89 95,24 c 52,13 96,26 99,29 16,16 37,-10 58,-71 z m -493,-215 c -7,-6 -191,-57 -268,-73 l -59,-12 7,-130 c 4,-71 8,-130 9,-132 2,-1 53,11 115,26 l 112,29 v -89 c 0,-49 0,-92 0,-96 1,-4 -34,-15 -77,-25 -165,-39 -153,-32 -148,-86 3,-26 7,-124 9,-218 l 6,-171 -81,-17 c -45,-10 -87,-20 -94,-22 -8,-3 -15,7 -19,27 -3,17 -10,237 -16,488 -5,251 -12,479 -15,506 l -6,50 133,29 c 73,16 189,42 258,60 l 125,31 7,-85 c 4,-46 4,-87 2,-90 z m 1576,58 c 25,-54 25,-100 2,-121 -27,-24 -128,-68 -171,-74 -73,-10 -136,82 -97,142 27,41 143,93 209,94 35,1 39,-2 57,-41 z m 2356,-270 c 68,-46 97,-117 98,-243 1,-102 -12,-136 -83,-217 -48,-54 -80,-67 -236,-98 -60,-12 -253,-57 -427,-101 -174,-43 -327,-79 -339,-79 -26,0 -156,-30 -304,-70 -60,-16 -162,-41 -225,-56 -231,-52 -366,-83 -400,-93 -19,-6 -44,-11 -55,-11 -16,0 -14,3 10,16 17,8 41,17 55,19 131,19 216,39 226,54 7,9 23,16 36,17 128,4 121,3 102,21 -13,14 -14,18 -3,22 8,2 17,9 21,15 4,5 22,9 42,8 27,-2 36,2 41,18 7,22 44,27 63,8 9,-9 12,-9 12,0 0,7 -5,12 -11,12 -6,0 -9,7 -6,14 4,11 1,13 -11,9 -15,-6 -15,-5 -3,10 17,22 18,22 35,-10 8,-16 15,-22 16,-15 0,6 5,12 11,12 6,0 9,-6 6,-13 -6,-17 19,-52 28,-38 3,6 21,11 40,11 52,0 138,22 123,32 -9,6 -7,8 7,6 47,-3 65,2 65,21 0,11 -4,21 -9,23 -4,2 -12,14 -16,27 -6,20 -4,23 9,18 9,-4 16,-2 16,3 0,6 7,10 15,10 9,0 26,6 38,14 12,8 49,20 82,27 33,7 64,16 69,20 10,9 -12,177 -23,184 -8,4 -102,-18 -119,-28 -28,-18 1,-24 49,-10 28,8 52,13 54,11 2,-2 5,-16 7,-33 4,-34 -26,-55 -80,-55 -23,0 -32,-4 -29,-12 5,-16 74,-13 93,3 22,18 46,3 42,-28 -3,-24 -10,-28 -78,-45 -41,-10 -86,-19 -100,-20 -14,-1 -31,-6 -39,-12 -11,-8 -13,-8 -8,0 3,6 0,20 -8,30 -8,10 -15,28 -15,40 0,12 -5,35 -11,53 -10,28 -15,31 -39,26 -31,-7 -56,15 -46,40 3,9 2,13 -3,10 -5,-3 -12,-1 -16,5 -3,5 -11,10 -17,10 -7,0 -7,-4 0,-13 14,-17 34,-209 22,-221 -16,-16 -76,4 -117,39 -23,19 -44,35 -47,35 -7,0 4,-59 15,-81 11,-22 -2,-38 -38,-45 -35,-7 -31,-18 -50,151 -6,59 -8,64 -11,29 -2,-32 -8,-43 -23,-47 -14,-4 -23,3 -35,28 -8,18 -24,41 -35,51 -19,17 -19,16 -19,-39 0,-56 0,-57 -30,-58 -63,-3 -59,6 -40,-104 14,-86 15,-85 -29,-85 h -38 l -7,81 -8,81 -36,-7 c -20,-4 -41,-7 -47,-8 -5,-1 -11,14 -13,34 l -3,36 -42,-9 c -23,-5 -58,-12 -77,-15 -19,-3 -44,-13 -55,-22 -11,-9 -33,-18 -50,-20 -16,-2 -33,-8 -37,-15 -6,-8 -8,-8 -8,0 0,7 -6,14 -13,17 -9,3 -11,-6 -9,-33 l 4,-38 -57,-16 c -51,-15 -77,-37 -62,-53 4,-3 25,2 48,11 48,20 62,12 57,-30 -3,-26 -7,-29 -42,-32 l -39,-3 7,-45 c 5,-39 3,-44 -13,-44 -11,0 -26,-2 -34,-6 -11,-4 -17,9 -26,53 -7,32 -18,85 -26,118 -12,54 -13,56 -14,23 -1,-31 -5,-38 -21,-38 -11,0 -20,-6 -21,-12 0,-10 -2,-10 -6,0 -5,14 -23,16 -23,3 0,-5 -22,-31 -49,-58 -34,-34 -52,-61 -56,-86 -5,-25 -4,-37 4,-37 6,0 11,-7 11,-16 0,-14 2,-15 17,-3 15,12 16,12 10,-3 -4,-12 -2,-18 7,-18 8,0 22,-12 31,-27 17,-26 19,-26 26,-8 7,18 8,18 8,2 1,-30 27,-50 50,-37 11,5 32,10 48,10 22,0 25,2 13,10 -13,8 -12,10 3,10 9,0 17,-6 17,-12 0,-8 3,-9 8,-3 4,6 23,12 42,14 57,5 32,-5 -93,-38 -114,-30 -119,-30 -165,-15 -99,33 -149,112 -159,248 -5,75 -3,89 19,138 27,58 80,118 126,142 37,19 313,99 432,124 52,12 259,61 460,110 664,163 874,212 1420,330 83,18 114,14 166,-20 z M 4858,5098 c 10,-13 32,-146 32,-198 0,-23 -5,-28 -30,-32 -17,-3 -33,-2 -35,2 -2,3 -9,55 -16,114 -11,92 -11,109 2,117 20,12 35,11 47,-3 z m -514,-283 c -4,-8 -8,-15 -10,-15 -2,0 -4,7 -4,15 0,8 4,15 10,15 5,0 7,-7 4,-15 z m 381,-120 c -22,-8 -51,-13 -65,-13 -15,0 -4,6 25,13 65,17 91,17 40,0 z"
         id="path1" /><path
         d="m 5014,8626 -28,-23 17,-79 c 27,-124 31,-117 -75,-136 -107,-20 -123,-32 -114,-82 4,-19 11,-38 16,-41 9,-5 87,7 197,30 19,4 23,-2 38,-73 22,-98 41,-136 63,-127 9,3 29,9 45,12 33,7 33,14 1,120 -32,102 -30,107 71,123 124,19 145,28 145,56 0,21 -25,85 -33,84 -1,0 -51,-13 -110,-29 -59,-15 -109,-25 -111,-22 -3,3 -11,41 -20,83 -28,137 -45,154 -102,104 z"
         id="path2" /><path
         d="m 6006,7793 c 10,-40 14,-41 14,-5 0,18 -5,32 -10,32 -6,0 -8,-11 -4,-27 z"
         id="path3" /><path
         d="m 6181,7537 c -1,-22 49,-270 56,-277 3,-3 2,16 -2,42 -11,72 -53,255 -54,235 z"
         id="path4" /><path
         d="m 6084,7391 c 3,-18 6,-42 6,-52 0,-11 5,-19 11,-19 13,0 2,80 -13,95 -7,7 -9,-1 -4,-24 z"
         id="path5" /><path
         d="m 6100,7293 c 0,-13 5,-23 10,-23 13,0 13,11 0,30 -8,12 -10,11 -10,-7 z"
         id="path6" /><path
         d="m 6242,7220 c 0,-14 2,-19 5,-12 2,6 2,18 0,25 -3,6 -5,1 -5,-13 z"
         id="path7" /><path
         d="m 6462,7580 c 0,-14 2,-19 5,-12 2,6 2,18 0,25 -3,6 -5,1 -5,-13 z"
         id="path8" /><path
         d="m 6352,7550 c 0,-14 2,-19 5,-12 2,6 2,18 0,25 -3,6 -5,1 -5,-13 z"
         id="path9" /><path
         d="m 6474,7518 c 4,-18 10,-54 13,-79 4,-41 2,-49 -18,-63 -22,-15 -22,-16 -4,-16 47,1 50,12 30,104 -9,47 -20,86 -23,86 -2,0 -1,-15 2,-32 z"
         id="path10" /><path
         d="m 6560,7914 c 0,-14 3,-14 15,-4 8,7 15,14 15,16 0,2 -7,4 -15,4 -8,0 -15,-7 -15,-16 z"
         id="path11" /><path
         d="m 6725,7672 c 4,-27 2,-41 -4,-37 -6,3 -18,-6 -27,-20 -9,-14 -25,-25 -36,-25 -13,0 -18,-6 -16,-17 4,-19 38,-20 84,-3 28,11 31,42 8,105 l -14,40 z"
         id="path12" /><path
         d="m 4312,7455 c 0,-16 2,-22 5,-12 2,9 2,23 0,30 -3,6 -5,-1 -5,-18 z"
         id="path13" /><path
         d="m 4322,7370 c 0,-14 2,-19 5,-12 2,6 2,18 0,25 -3,6 -5,1 -5,-13 z"
         id="path14" /><path
         d="m 4385,7045 c 5,-27 14,-86 20,-130 7,-48 13,-66 14,-45 1,38 -27,212 -36,220 -3,3 -2,-17 2,-45 z"
         id="path15" /><path
         d="m 4531,6974 c 0,-11 3,-14 6,-6 3,7 2,16 -1,19 -3,4 -6,-2 -5,-13 z"
         id="path16" /><path
         d="m 4542,6920 c 0,-14 2,-19 5,-12 2,6 2,18 0,25 -3,6 -5,1 -5,-13 z"
         id="path17" /><path
         d="m 4422,6805 c 0,-16 2,-22 5,-12 2,9 2,23 0,30 -3,6 -5,-1 -5,-18 z"
         id="path18" /><path
         d="m 4101,7017 c 0,-12 4,-40 8,-62 l 8,-40 4,57 c 3,40 0,59 -8,63 -8,3 -13,-4 -12,-18 z"
         id="path19" /><path
         d="m 3766,7324 c 4,-20 13,-59 20,-88 l 13,-51 -4,70 c -5,75 -1,90 30,98 11,2 1,5 -23,6 l -43,1 z"
         id="path20" /><path
         d="m 3242,5790 c -6,-36 -23,-112 -36,-170 -29,-121 -33,-165 -12,-157 7,3 34,8 59,12 77,12 79,15 50,130 -14,55 -30,134 -37,175 l -12,75 z"
         id="path21" /><path
         d="m 6616,5517 c -5,-29 -12,-38 -34,-43 -62,-14 -92,-26 -92,-39 0,-10 10,-12 38,-8 63,10 67,9 70,-19 3,-28 0,-30 -65,-43 -19,-4 -33,-13 -33,-21 0,-10 6,-11 23,-5 12,4 41,11 64,15 36,5 44,3 53,-13 14,-27 13,-30 -12,-42 l -23,-10 23,5 c 12,2 22,-1 22,-7 0,-9 2,-9 8,-1 4,6 17,14 30,18 21,7 31,26 13,26 -11,0 -41,96 -41,132 -1,12 -9,38 -19,57 l -18,34 z"
         id="path22" /><path
         d="m 6228,5390 c -13,-14 -26,-18 -51,-13 -42,6 -61,-14 -20,-22 15,-3 46,-11 68,-18 37,-11 40,-15 43,-50 2,-23 -3,-48 -13,-63 -12,-19 -13,-24 -2,-24 16,0 42,65 51,124 9,68 -37,109 -76,66 z"
         id="path23" /><path
         d="m 6064,5304 c 3,-9 6,-25 6,-37 0,-21 4,-22 65,-19 77,4 90,26 22,36 -23,4 -55,13 -71,21 -25,13 -27,13 -22,-1 z"
         id="path24" /><path
         d="m 6553,5283 c 9,-2 23,-2 30,0 6,3 -1,5 -18,5 -16,0 -22,-2 -12,-5 z"
         id="path25" /><path
         d="m 6465,5265 -30,-14 30,6 c 17,3 37,9 45,14 27,15 -11,10 -45,-6 z"
         id="path26" /><path
         d="m 6082,5194 c 10,-10 20,-15 24,-12 3,4 -5,12 -18,18 -22,12 -22,12 -6,-6 z"
         id="path27" /><path
         d="m 5487,5193 c -11,-10 -8,-20 7,-26 10,-4 12,0 9,14 -6,21 -7,22 -16,12 z"
         id="path28" /><path
         d="m 5045,5175 c -39,-14 -40,-14 -5,-8 41,7 82,22 60,22 -8,0 -33,-7 -55,-14 z"
         id="path29" /><path
         d="m 5732,5130 c 0,-19 2,-27 5,-17 2,9 2,25 0,35 -3,9 -5,1 -5,-18 z"
         id="path30" /><path
         d="m 4630,5070 c -8,-5 -10,-10 -5,-10 6,0 17,5 25,10 8,5 11,10 5,10 -5,0 -17,-5 -25,-10 z"
         id="path31" /><path
         d="m 7706,8347 c -16,-11 -18,-21 -12,-55 3,-23 14,-58 24,-78 10,-22 13,-39 7,-41 -35,-12 -75,-45 -75,-63 0,-18 4,-20 43,-14 23,4 46,7 51,8 6,0 13,-23 18,-52 11,-73 23,-92 57,-92 52,0 61,40 35,145 -5,22 -1,27 30,40 19,8 58,15 85,15 67,0 97,29 71,70 -8,12 -15,13 -52,1 -24,-7 -71,-16 -105,-18 l -62,-5 -6,39 c -13,79 -28,108 -60,111 -17,2 -39,-3 -49,-11 z m 224,-162 c 0,-8 -4,-15 -9,-15 -13,0 -22,16 -14,24 11,11 23,6 23,-9 z"
         id="path32" /><path
         d="m 7500,8143 c -51,-19 -66,-71 -28,-97 28,-20 51,-20 87,-1 35,18 44,38 30,69 -14,31 -52,43 -89,29 z"
         id="path33" /><path
         d="m 2554,7209 c -37,-11 -48,-38 -38,-99 4,-25 2,-57 -6,-80 -13,-38 -12,-40 26,-90 21,-28 48,-53 59,-55 59,-11 80,8 96,87 10,50 9,61 -9,100 -11,23 -25,62 -32,86 -8,31 -18,46 -36,52 -14,6 -26,10 -27,9 -1,0 -16,-5 -33,-10 z"
         id="path34" /><path
         d="m 2870,7157 c -66,-23 -77,-108 -15,-119 35,-7 96,7 106,24 15,23 10,67 -11,88 -23,23 -31,24 -80,7 z"
         id="path35" /><path
         d="m 2355,6990 c -3,-11 -3,-24 0,-30 9,-14 48,-12 70,4 16,12 17,16 6,30 -19,23 -68,21 -76,-4 z"
         id="path36" /><path
         d="m 2096,6112 c -5,-9 9,-80 18,-89 3,-4 6,14 6,40 0,43 -12,68 -24,49 z"
         id="path37" /><path
         d="m 7755,5661 c -44,-15 -94,-28 -111,-29 -73,-2 -458,-92 -477,-111 -6,-6 -6,-25 0,-48 8,-37 10,-38 57,-41 33,-2 115,13 255,47 113,28 246,58 296,66 128,23 156,47 124,108 -24,45 -37,46 -144,8 z"
         id="path38" /><path
         d="m 3570,4690 c -168,-43 -317,-83 -332,-89 -22,-8 -28,-17 -28,-41 0,-41 16,-70 39,-70 10,0 77,15 147,34 71,19 223,57 339,85 115,29 213,58 217,64 20,30 -20,98 -56,96 -12,-1 -158,-36 -326,-79 z"
         id="path39" /><path
         d="m 6668,4753 c -24,-6 -26,-21 -14,-83 11,-55 11,-55 46,-52 53,4 68,28 23,37 -10,2 -20,4 -22,4 -2,1 4,10 14,21 18,20 18,21 -3,27 -27,7 -29,23 -2,23 11,0 20,7 20,15 0,15 -25,18 -62,8 z"
         id="path40" /><path
         d="m 6516,4685 c -17,-39 -35,-45 -54,-15 -7,11 -19,20 -27,20 -27,0 -14,-129 14,-138 10,-3 12,1 8,17 -5,21 7,29 17,12 9,-14 46,-1 46,17 0,13 3,13 19,-2 40,-37 48,0 20,92 -13,41 -25,41 -43,-3 z"
         id="path41" /><path
         d="m 2180,4634 c 0,-19 4,-33 8,-30 8,5 4,66 -4,66 -2,0 -4,-16 -4,-36 z"
         id="path42" /><path
         d="m 6263,4638 c -32,-10 -33,-12 -27,-52 10,-60 19,-74 48,-69 42,8 50,26 35,83 -7,27 -15,50 -18,49 -3,-1 -21,-6 -38,-11 z m 41,-45 c 5,-17 3,-29 -5,-34 -19,-12 -29,-1 -29,32 0,37 25,39 34,2 z"
         id="path43" /><path
         d="m 6090,4585 c 0,-20 -5,-25 -24,-25 -13,0 -26,7 -30,15 -6,16 -36,21 -36,7 0,-5 5,-34 11,-65 9,-44 16,-57 30,-57 13,0 17,7 16,26 -3,36 20,42 35,10 6,-15 16,-25 22,-23 15,5 19,77 7,110 -13,34 -31,35 -31,2 z"
         id="path44" /><path
         d="m 5631,4461 c -9,-6 -4,-10 18,-13 21,-3 31,0 31,9 0,15 -28,17 -49,4 z"
         id="path45" /><path
         d="m 5446,4428 c -3,-7 -6,-21 -8,-31 -3,-18 -4,-18 -30,2 -14,12 -31,21 -37,21 -22,0 -5,-120 17,-128 10,-3 12,5 6,34 l -7,38 32,-27 c 18,-15 37,-27 42,-27 12,0 12,117 -1,125 -6,3 -12,0 -14,-7 z"
         id="path46" /><path
         d="m 5681,4413 c -1,-13 -7,-23 -13,-23 -9,0 -8,-3 2,-10 21,-13 32,3 21,31 -10,24 -10,24 -10,2 z"
         id="path47" /><path
         d="m 5195,4371 c -7,-13 15,-101 26,-101 4,0 20,5 34,12 18,8 24,16 19,27 -4,9 -6,28 -5,44 1,24 -2,27 -33,27 -19,0 -37,-4 -41,-9 z m 45,-61 c 0,-5 -2,-10 -4,-10 -3,0 -8,5 -11,10 -3,6 -1,10 4,10 6,0 11,-4 11,-10 z"
         id="path48" /><path
         d="m 5007,4320 c -37,-86 -28,-183 9,-105 18,38 34,44 59,19 44,-44 23,28 -25,86 l -29,35 z"
         id="path49" /><path
         d="m 4810,4280 c -14,-5 -42,-12 -63,-17 -48,-10 -53,-27 -10,-31 34,-3 38,-11 45,-72 2,-14 10,-26 21,-28 15,-3 17,2 11,53 -6,50 -5,58 15,71 11,8 21,19 21,25 0,10 -5,10 -40,-1 z"
         id="path50" /></g></g></svg>
